<svg width="763" height="762" viewBox="0 0 763 762" fill="none" xmlns="http://www.w3.org/2000/svg">
<ellipse cx="381.5" cy="381" rx="381.5" ry="381" fill="url(#paint0_linear_307_421)"/>
<path d="M733.677 640.022H549.703V634.374C549.703 629.47 551.65 624.767 555.116 621.3C558.582 617.832 563.284 615.884 568.185 615.884H715.195C720.097 615.884 724.798 617.832 728.264 621.3C731.73 624.767 733.677 629.47 733.677 634.374V640.022Z" fill="#009F6F"/>
<path d="M637.385 617.011L642.979 614.757C584.44 469.394 590.08 286.006 639.564 128.691C645.443 110.464 645.867 90.9156 640.784 72.4506C635.702 53.9856 625.335 37.4096 610.958 24.762C582.236 -0.87982 542.638 -7.12638 507.611 8.45833C473.037 23.8442 468.272 50.644 468.272 77.3134H474.304C474.304 48.8451 480.385 27.1789 510.063 13.9719C542.891 -0.633787 580.012 5.22458 606.942 29.265C620.445 41.1438 630.182 56.7124 634.956 74.0555C639.73 91.3986 639.332 109.759 633.811 126.879C583.755 286.01 578.446 470.658 637.385 617.011Z" fill="#009F6F"/>
<path d="M472.796 166.321C484.456 166.321 493.908 156.865 493.908 145.201C493.908 133.536 484.456 124.08 472.796 124.08C461.136 124.08 451.684 133.536 451.684 145.201C451.684 156.865 461.136 166.321 472.796 166.321Z" fill="#E1FDEC"/>
<path d="M440.281 182.019V142.001H446.502V182.019C448.286 182.742 449.763 184.062 450.681 185.754C451.599 187.447 451.9 189.406 451.532 191.296C451.164 193.186 450.151 194.889 448.666 196.113C447.181 197.338 445.316 198.007 443.391 198.007C441.467 198.007 439.602 197.338 438.117 196.113C436.632 194.889 435.618 193.186 435.251 191.296C434.883 189.406 435.184 187.447 436.102 185.754C437.02 184.062 438.497 182.742 440.281 182.019Z" fill="#009F6F"/>
<path d="M410.214 111.257C410.225 102.057 413.882 93.2379 420.384 86.7331C426.886 80.2283 435.702 76.5692 444.898 76.5588H502.201C511.4 76.5588 520.222 80.2144 526.726 86.7215C533.231 93.2287 536.885 102.054 536.885 111.257C536.885 120.459 533.231 129.285 526.726 135.792C520.222 142.299 511.4 145.955 502.201 145.955H444.898C435.702 145.944 426.886 142.285 420.384 135.78C413.882 129.275 410.225 120.456 410.214 111.257Z" fill="#0260EE"/>
<path d="M329.476 326.128C335.229 252.489 364.646 217.404 345.81 195.401C327.768 174.326 276.945 178.679 244.305 198.903C156.269 253.451 124.016 470.856 237.305 577.076C344.958 678.011 548.981 645.684 594.322 563.069C604.902 543.793 613.306 510.001 597.823 489.536C559.381 438.727 419.618 530.756 357.477 473.195C320.651 439.082 326.319 366.541 329.476 326.128Z" fill="url(#paint1_linear_307_421)"/>
<path d="M396.772 289.544C394.633 290.528 392.963 292.307 392.117 294.504C391.27 296.701 391.314 299.142 392.239 301.307C392.434 301.745 392.665 302.165 392.929 302.564L374.033 327.805L383.462 341.903L405.61 304.527C407.179 303.302 408.299 301.593 408.795 299.665C409.291 297.737 409.135 295.699 408.352 293.869C407.896 292.832 407.24 291.895 406.422 291.112C405.605 290.328 404.641 289.713 403.585 289.302C402.53 288.892 401.404 288.693 400.272 288.717C399.14 288.742 398.024 288.989 396.987 289.445C396.915 289.477 396.843 289.51 396.772 289.544Z" fill="#FFB6B6"/>
<path d="M396.756 333.062C397.993 334.159 394.563 335.513 390.934 333.377C389.896 332.759 389.453 332.502 389.336 332.665C389.044 333.074 390.748 336.085 390.293 342.773C390.013 346.765 383.386 354.27 375.86 361.589C365.687 371.486 353.856 381.034 353.856 381.034L349.702 377.708L306.149 342.773L298.798 332.595C299.471 328.576 300.482 324.621 301.82 320.772C303.663 315.444 305.853 310.242 308.377 305.201C309.73 302.458 311.119 299.844 312.449 297.439L335.783 323.164L355.338 344.711C355.338 344.711 361.031 335.537 365.441 333.039C366.004 332.68 366.644 332.459 367.308 332.397C371.765 332.187 372.034 329.759 366.865 324.472C361.696 319.184 368.218 324.121 372.815 322.697C377.412 321.273 372.815 322.697 373.784 319.137C374.752 315.578 387.644 308.434 387.644 308.434L388.181 308.913L397.923 317.515L400.712 319.978C400.712 319.978 397.666 328.335 396.826 330.098C395.986 331.86 395.531 331.953 396.756 333.062Z" fill="#0260EE"/>
<path d="M653.572 495.205L654.047 482.33L604.635 474.371L603.933 493.372L653.572 495.205Z" fill="#FFB6B6"/>
<path d="M651.469 499.559L651 478.945L659.809 479.27L674.03 460.214C674.732 459.272 675.717 458.58 676.84 458.238C677.963 457.897 679.166 457.923 680.274 458.314C681.381 458.704 682.334 459.439 682.995 460.41C683.655 461.381 683.988 462.538 683.945 463.712L683.041 488.199L674.173 492.098L682.825 494.068L682.485 503.301L651.469 499.559Z" fill="#2F2E41"/>
<path d="M375.473 500.217L531.981 504.187C531.981 504.187 599.566 508.092 615.423 497.772L632.145 495.66L633.051 471.088C633.051 471.088 622.826 471.163 616.947 468.423C611.068 465.683 615.154 462.329 609.548 465.627C603.943 468.924 604.535 469.32 600.202 467.805C595.868 466.29 397.133 435.986 397.133 435.986L375.473 500.217Z" fill="#2F2E41"/>
<path d="M581.709 489.554L590.81 480.439L559.997 440.983L546.565 454.437L581.709 489.554Z" fill="#FFB6B6"/>
<path d="M572.498 481.624L586.169 466.193L592.405 472.425L615.786 468.131C616.941 467.919 618.133 468.082 619.189 468.595C620.245 469.109 621.109 469.947 621.655 470.987C622.201 472.026 622.401 473.214 622.225 474.375C622.049 475.536 621.506 476.611 620.677 477.442L603.367 494.779L594.214 491.603L599.218 498.934L592.692 505.471L572.498 481.624Z" fill="#2F2E41"/>
<path d="M313.726 414.468L315.282 450.651C317.113 493.246 364.003 519.026 400.363 496.786C401.033 496.377 401.705 495.952 402.38 495.513C402.38 495.513 416.164 491.809 415.746 485.945C415.327 480.08 418.695 477.226 421.675 478.825C424.655 480.425 463.672 425.029 463.672 425.029C463.672 425.029 544.738 465.482 562.622 475.005C562.622 475.005 579.436 448.705 578.217 448.98C576.998 449.256 477.929 379.888 477.929 379.888C477.929 379.888 461.789 363.547 441.769 374.337C441.352 375.921 441.708 375.977 441.708 375.977L375.573 429.888L366.228 412.134L313.726 414.468Z" fill="#2F2E41"/>
<path d="M376.082 369.234C375.956 370.905 375.719 372.566 375.37 374.206C374.894 376.579 374.126 378.885 373.084 381.069C373.084 381.069 373.084 383.509 368.417 391.679C363.75 399.849 369.583 396.348 373.084 402.417C376.584 408.475 373.084 405.685 369.198 409.584C368.08 410.718 367.285 412.132 366.898 413.678C366.51 415.223 366.543 416.844 366.993 418.373C366.993 418.373 316.871 418.408 307.537 414.906C298.203 411.405 296.08 391.679 304.445 389.73C312.799 387.781 301.913 385.843 297.001 381.349C292.09 376.856 301.913 369.502 301.913 369.502C301.913 369.502 297.865 362.511 298.203 339.038C298.251 336.879 298.45 334.726 298.798 332.595C299.471 328.576 300.482 324.621 301.82 320.772C303.663 315.444 305.853 310.242 308.377 305.201C309.73 302.458 311.119 299.844 312.449 297.439C312.659 297.066 312.857 296.704 313.067 296.342C315.599 291.86 317.909 288.195 319.438 285.849C320.616 284.028 321.328 283.001 321.328 283.001L329.821 268.224L358.173 281.519L356.563 303.264L361.451 319.663L363.703 327.215L365.441 333.039L368.125 342.061C368.125 342.061 367.39 342.096 368.265 343.299C372.295 348.659 374.907 354.95 375.86 361.589C376.196 364.123 376.271 366.684 376.082 369.234Z" fill="#0260EE"/>
<path d="M457.958 371.577L457.425 371.405L389.568 349.545L414.573 267.477C415.071 265.843 415.933 264.343 417.095 263.09C418.256 261.838 419.687 260.866 421.279 260.247C422.87 259.628 424.582 259.379 426.284 259.518C427.986 259.657 429.634 260.181 431.105 261.05L474.469 286.68C477.901 288.707 480.513 291.876 481.847 295.633C483.181 299.39 483.153 303.497 481.768 307.236L457.958 371.577Z" fill="#2F2E41"/>
<path d="M458.233 376.794L389.829 354.758L414.834 272.69C415.332 271.056 416.195 269.556 417.356 268.304C418.518 267.051 419.948 266.079 421.54 265.46C423.132 264.841 424.844 264.592 426.546 264.731C428.248 264.87 429.896 265.394 431.366 266.263L476.801 288.956C483.626 292.989 483.467 303.429 480.297 311.994L458.233 376.794Z" fill="#0260EE"/>
<path d="M451.385 382.735C449.81 383.624 448.067 384.175 446.267 384.354C444.467 384.533 442.65 384.336 440.931 383.775L397.209 369.689C393.854 368.593 391.061 366.227 389.426 363.099C387.791 359.97 387.444 356.326 388.459 352.944L410.379 281.002C410.817 279.564 411.537 278.229 412.498 277.074C413.459 275.919 414.64 274.967 415.973 274.275C417.306 273.583 418.764 273.164 420.261 273.043C421.758 272.922 423.265 273.101 424.692 273.57L470.001 288.453C472.16 289.162 474.155 290.296 475.868 291.79C477.581 293.283 478.978 295.104 479.976 297.147C480.973 299.189 481.552 301.411 481.677 303.681C481.802 305.95 481.471 308.222 480.704 310.362L457.267 375.729C456.214 378.697 454.125 381.185 451.385 382.735Z" fill="#3F3D56"/>
<path d="M356.57 268.477C373.865 268.477 387.886 254.45 387.886 237.148C387.886 219.846 373.865 205.819 356.57 205.819C339.275 205.819 325.254 219.846 325.254 237.148C325.254 254.45 339.275 268.477 356.57 268.477Z" fill="#FFB6B6"/>
<path d="M250.674 268.949C253.548 274.521 258.26 278.928 264.011 281.422C266.307 282.468 268.72 283.232 271.199 283.697C271.899 280.917 273.021 278.261 274.525 275.821C274.024 278.572 274.024 281.39 274.525 284.141C278.301 284.45 282.101 283.978 285.687 282.755C289.209 281.556 292.403 279.553 295.017 276.905C297.63 274.256 299.591 271.034 300.743 267.496C303.237 259.191 300.55 250.322 300.339 241.654C300.12 232.985 304.235 222.616 312.837 221.544C319.389 220.725 318.578 221.361 323.286 225.991C316.701 233.308 332.753 265.717 341.367 264.285C346.237 263.476 349.82 259.608 350.783 259.742C355.715 271.825 340.879 288.962 352.646 294.588L351.773 293.432C345.614 283.253 363.839 266.061 357.68 255.882C355.962 253.034 354.177 249.696 355.24 246.546C356.248 243.551 361.354 242.603 362.431 245.329C360.68 239.081 365.569 231.747 372.063 231.11C377.831 230.54 377.498 232.185 382.999 233.686C383.702 231.316 384.714 229.049 386.011 226.944C385.572 229.345 385.518 231.801 385.85 234.22C387.834 234.457 389.841 234.032 391.559 233.011C396.638 229.965 396.789 222.102 393.3 217.316C389.804 212.53 383.949 210.167 378.3 208.378C378.248 196.427 346.105 190.706 340.193 201.817C339.585 192.821 329.276 186.761 320.396 188.289C311.516 189.817 304.51 196.941 300.239 204.88C295.969 212.814 293.849 221.697 290.723 230.148C287.596 238.598 283.128 247.024 275.642 252.038C268.157 257.046 257.033 257.501 250.783 251.01C249.358 253.782 248.605 256.85 248.586 259.966C248.567 263.083 249.283 266.16 250.674 268.949Z" fill="#2F2E41"/>
<path d="M282.807 412.213C283.455 411.694 284.158 411.249 284.903 410.885C296.89 404.917 334.165 389.425 363.311 390.061C419.39 391.284 490.759 453.2 474.15 494.779C461.511 526.417 398.677 544.417 352.81 530.021C288.555 509.852 263.192 427.858 282.807 412.213Z" fill="url(#paint2_linear_307_421)"/>
<path d="M49.9966 640.141C31.672 636.682 15.4514 554.094 51.5046 513.418C63.8569 499.482 79.2648 493.417 99.7602 487.772C217.725 455.282 307.698 486.247 319.789 493.807C331.853 501.35 353.003 615.002 325.958 631.089C310.742 640.141 280.582 644.667 265.639 634.107C243.651 618.568 280.558 578.263 264.131 551.133C245.49 520.347 147.329 509.977 98.1155 540.573C45.61 573.216 153.911 659.753 49.9966 640.141Z" fill="#008622"/>
<path d="M172.512 499.722H102.506C85.2241 483.153 72.8677 467.185 82.7604 453.93C82.7604 450.12 84.2734 446.465 86.9664 443.771C89.6595 441.077 93.3121 439.564 97.1207 439.564H177.897C181.706 439.564 185.359 441.077 188.052 443.771C190.745 446.465 192.258 450.12 192.258 453.93C196.024 469.033 189.295 484.299 172.512 499.722Z" fill="#B7F8D0"/>
<path d="M159.94 421.478C159.276 421.508 158.618 421.334 158.056 420.978C157.494 420.622 157.055 420.102 156.799 419.489C156.542 418.875 156.481 418.197 156.622 417.547C156.764 416.897 157.101 416.306 157.589 415.855L157.812 414.971C157.782 414.9 157.753 414.83 157.723 414.759C157.054 413.178 155.933 411.83 154.5 410.884C153.068 409.938 151.388 409.437 149.671 409.443C147.955 409.45 146.279 409.963 144.853 410.92C143.428 411.876 142.317 413.232 141.659 414.819C139.032 421.149 135.687 427.491 134.863 434.184C134.5 437.143 134.653 440.142 135.315 443.048C129.144 429.581 125.94 414.945 125.919 400.13C125.918 396.413 126.124 392.698 126.538 389.004C126.879 385.975 127.353 382.968 127.959 379.982C131.267 363.783 138.368 348.6 148.68 335.679C153.671 332.955 157.707 328.765 160.245 323.675C161.165 321.846 161.814 319.893 162.174 317.877C161.611 317.951 160.051 309.372 160.476 308.846C159.691 307.655 158.287 307.063 157.43 305.901C153.168 300.12 147.297 301.13 144.231 308.985C137.683 312.291 137.62 317.774 141.638 323.048C144.194 326.403 144.545 330.942 146.788 334.534C146.557 334.83 146.317 335.116 146.087 335.411C141.868 340.838 138.192 346.664 135.11 352.808C135.86 345.925 134.965 338.963 132.5 332.494C130.002 326.465 125.319 321.387 121.196 316.175C116.243 309.914 106.086 312.646 105.214 320.583C105.205 320.659 105.197 320.736 105.189 320.813C105.801 321.159 106.401 321.526 106.988 321.914C107.725 322.406 108.296 323.11 108.626 323.933C108.956 324.756 109.03 325.659 108.839 326.525C108.647 327.39 108.198 328.178 107.551 328.784C106.905 329.39 106.09 329.787 105.214 329.922L105.124 329.936C105.343 332.144 105.728 334.333 106.278 336.483C100.988 356.949 112.409 364.403 128.716 364.738C129.076 364.922 129.427 365.107 129.787 365.282C126.69 374.061 124.748 383.205 124.009 392.485C123.59 397.96 123.615 403.459 124.083 408.93L124.055 408.736C122.873 402.653 119.629 397.164 114.871 393.196C107.804 387.388 97.8187 385.249 90.1943 380.581C89.384 380.06 88.4418 379.782 87.4788 379.78C86.5159 379.778 85.5724 380.051 84.7596 380.567C83.9468 381.084 83.2985 381.822 82.8913 382.695C82.4841 383.568 82.335 384.539 82.4615 385.494C82.4717 385.562 82.4821 385.63 82.4927 385.698C83.6293 386.161 84.7359 386.695 85.8062 387.295C86.4186 387.641 87.0182 388.008 87.6048 388.396C88.3417 388.889 88.9127 389.592 89.243 390.415C89.5733 391.238 89.6475 392.141 89.4558 393.007C89.2641 393.873 88.8154 394.66 88.1687 395.267C87.5219 395.873 86.7072 396.269 85.8313 396.404L85.7415 396.418C85.6769 396.427 85.6215 396.437 85.557 396.446C87.499 401.085 90.2247 405.355 93.6146 409.068C96.9223 426.934 111.129 428.629 126.325 423.427H126.335C128.002 430.675 130.418 437.731 133.543 444.479H159.295C159.387 444.193 159.47 443.898 159.553 443.611C157.169 443.761 154.776 443.619 152.427 443.187C154.338 440.841 156.249 438.478 158.159 436.132C158.202 436.088 158.242 436.042 158.279 435.994C159.248 434.793 160.227 433.602 161.196 432.402L161.196 432.4C161.248 428.721 160.825 425.05 159.94 421.478Z" fill="#00BA44"/>
<path d="M247.773 495.97C248.2 497.214 249.01 498.29 250.087 499.045C251.164 499.8 252.452 500.193 253.767 500.17L279.449 499.509C280.773 499.483 282.053 499.029 283.098 498.215C284.144 497.401 284.897 496.27 285.247 494.992L288.881 456.114C290.171 456.699 291.574 456.987 292.99 456.959C295.473 456.897 297.829 455.85 299.541 454.049C301.253 452.249 302.18 449.841 302.117 447.357C302.055 444.873 301.009 442.515 299.209 440.802C297.409 439.09 295.003 438.163 292.519 438.225C291.954 438.223 291.39 438.282 290.836 438.4C290.235 437.749 289.503 437.231 288.69 436.88C287.876 436.529 286.998 436.352 286.111 436.361L246.606 437.381C246.279 437.393 245.953 437.434 245.632 437.502C244.766 437.664 243.944 438.009 243.222 438.515C242.5 439.021 241.895 439.676 241.448 440.435C241 441.195 240.72 442.041 240.627 442.918C240.534 443.795 240.63 444.681 240.908 445.518L247.773 495.97ZM289.626 453.475L292.212 444.21C292.507 443.14 292.513 442.011 292.232 440.937C292.358 440.937 292.468 440.878 292.594 440.877C294.367 440.841 296.082 441.509 297.363 442.736C298.644 443.963 299.387 445.647 299.428 447.421C299.47 449.195 298.807 450.912 297.584 452.198C296.362 453.483 294.68 454.231 292.908 454.278C291.761 454.313 290.627 454.036 289.626 453.475Z" fill="#88CCFF"/>
<path d="M245.632 437.502C246.474 442.316 255.936 445.701 267.314 445.113C277.777 444.63 286.332 440.955 287.899 436.599C287.319 436.427 286.716 436.347 286.111 436.36L246.606 437.381C246.279 437.393 245.953 437.434 245.632 437.502Z" fill="#2F2E41"/>
<path d="M434.485 334.45C432.133 334.536 429.907 335.537 428.281 337.239C426.655 338.942 425.758 341.212 425.779 343.566C425.791 344.045 425.843 344.521 425.933 344.991L398.789 361.023L402.075 377.665L436.885 351.681C438.804 351.154 440.495 350.007 441.694 348.418C442.893 346.829 443.532 344.888 443.512 342.897C443.49 341.765 443.245 340.648 442.791 339.61C442.337 338.572 441.684 337.633 440.867 336.848C440.051 336.063 439.088 335.447 438.034 335.034C436.979 334.621 435.854 334.42 434.722 334.442C434.643 334.444 434.564 334.446 434.485 334.45Z" fill="#FFB6B6"/>
<path d="M412.249 372.67C411.523 371.696 411.211 371.289 411.046 371.401C410.621 371.657 411.03 375.096 408.04 381.088C403.831 389.507 359.704 402.4 359.704 402.4L354.271 392.45L330.374 348.722L322.137 313.672C321.849 312.45 321.709 311.198 321.72 309.942C329.064 304.772 336.864 300.281 345.021 296.525C348.281 298.374 350.766 301.336 352.022 304.869L368.472 351.011L375.036 369.434C375.036 369.434 386.615 361.151 390.816 362.671C395.009 364.201 396.201 362.056 393.46 355.189C390.718 348.322 394.833 355.39 399.621 355.84C404.418 356.296 399.621 355.84 401.887 352.926C404.153 350.012 418.803 348.372 418.803 348.372L419.115 349.022L424.792 360.706L426.418 364.063C426.418 364.063 420.399 370.596 418.946 371.898C417.487 373.21 417.037 373.119 417.751 374.613C418.456 376.1 414.771 376.033 412.249 372.67Z" fill="#0260EE"/>
<ellipse cx="679.5" cy="347" rx="15.5" ry="11" fill="#E2F3FF"/>
<path d="M633.214 239.735C628.884 215.784 636.08 188.607 655.726 174.24C654.463 200.678 662.592 226.71 678.675 247.731C684.906 255.815 692.68 264.158 692.377 274.361C692.189 280.71 688.72 286.605 684.169 291.035C679.618 295.465 674.024 298.645 668.498 301.776L667.633 303.105C651.593 284.799 637.545 263.685 633.214 239.735Z" fill="#00BA44"/>
<path d="M656.08 174.608C647.755 192.953 645.421 213.454 649.41 233.201C650.194 237.467 651.645 241.583 653.71 245.398C655.842 249.049 658.912 252.062 662.602 254.125C666.005 256.117 669.715 257.761 672.574 260.546C674.016 261.993 675.136 263.728 675.86 265.639C676.584 267.549 676.896 269.591 676.776 271.63C676.609 276.72 674.623 281.446 672.52 286C670.185 291.056 667.68 296.271 667.796 301.971C667.81 302.662 666.737 302.644 666.723 301.954C666.521 292.036 673.737 284.113 675.39 274.607C676.162 270.172 675.601 265.476 672.499 262.017C669.787 258.991 665.962 257.292 662.5 255.305C658.871 253.345 655.776 250.527 653.487 247.096C651.235 243.399 649.627 239.346 648.735 235.11C646.573 225.605 645.918 215.819 646.796 206.111C647.737 195.026 650.566 184.183 655.163 174.052C655.448 173.425 656.363 173.985 656.08 174.608Z" fill="white"/>
<path d="M647.752 226.918C644.348 227.138 640.976 226.14 638.24 224.104C635.504 222.067 633.58 219.125 632.814 215.801C632.661 215.128 633.699 214.859 633.852 215.533C634.561 218.629 636.353 221.37 638.905 223.261C641.457 225.152 644.601 226.069 647.769 225.846C648.458 225.798 648.436 226.871 647.752 226.918Z" fill="white"/>
<path d="M648.989 195.699C650.324 195.888 651.685 195.743 652.95 195.277C654.215 194.81 655.344 194.037 656.236 193.026C656.692 192.507 657.435 193.281 656.982 193.797C655.991 194.909 654.743 195.762 653.347 196.28C651.95 196.799 650.448 196.967 648.972 196.771C648.831 196.765 648.698 196.705 648.6 196.603C648.502 196.502 648.446 196.367 648.444 196.226C648.447 196.084 648.506 195.949 648.608 195.851C648.71 195.752 648.847 195.697 648.989 195.699Z" fill="white"/>
<path d="M735.604 194.496C735.328 194.829 735.053 195.162 734.78 195.503C731.1 199.994 727.79 204.776 724.885 209.802C724.654 210.187 724.426 210.581 724.207 210.972C717.336 223.157 712.786 236.511 710.79 250.357C710.001 255.867 709.632 261.429 709.687 266.995C709.763 274.682 710.457 283.011 708.06 290.066C707.818 290.805 707.53 291.529 707.199 292.232L669.321 304.057C669.221 304.041 669.124 304.033 669.024 304.017L667.533 304.558C667.51 304.271 667.493 303.973 667.47 303.686C667.456 303.52 667.45 303.351 667.437 303.185C667.43 303.073 667.424 302.961 667.411 302.861C667.409 302.823 667.407 302.786 667.407 302.758C667.395 302.657 667.394 302.563 667.384 302.471C667.282 300.805 667.191 299.136 667.111 297.463C667.108 297.454 667.108 297.454 667.114 297.443C666.539 284.695 667.024 271.788 669.452 259.364C669.526 258.99 669.596 258.608 669.686 258.229C670.812 252.635 672.393 247.142 674.414 241.806C675.529 238.887 676.792 236.027 678.197 233.236C681.841 226.032 686.596 219.446 692.287 213.719C703.633 202.305 718.503 194.647 734.39 194.496C734.796 194.492 735.195 194.491 735.604 194.496Z" fill="#00BA44"/>
<path d="M735.669 195.004C717.976 204.638 703.77 219.603 695.066 237.771C693.123 241.649 691.803 245.809 691.156 250.098C690.66 254.297 691.297 258.551 693.002 262.42C694.519 266.059 696.492 269.606 697.097 273.55C697.378 275.574 697.227 277.634 696.655 279.595C696.083 281.557 695.103 283.375 693.779 284.931C690.581 288.894 686.15 291.471 681.729 293.841C676.821 296.473 671.681 299.128 668.342 303.75C667.937 304.31 667.092 303.649 667.496 303.09C673.306 295.049 683.837 293.068 690.88 286.473C694.167 283.396 696.546 279.31 696.152 274.68C695.809 270.631 693.777 266.972 692.21 263.301C690.491 259.551 689.718 255.438 689.956 251.32C690.383 247.012 691.54 242.808 693.378 238.888C697.374 229.997 702.743 221.79 709.289 214.567C716.714 206.282 725.502 199.329 735.271 194.007C735.876 193.678 736.269 194.677 735.669 195.004Z" fill="white"/>
<path d="M691.99 260.676C698.831 259.326 704.912 255.448 709.02 249.814C709.426 249.255 710.272 249.916 709.866 250.474C705.58 256.328 699.243 260.352 692.121 261.741C691.443 261.872 691.315 260.807 691.99 260.676Z" fill="white"/>
<path d="M717.309 207.574C718.261 208.529 719.434 209.233 720.725 209.622C722.016 210.011 723.383 210.073 724.704 209.804C725.381 209.663 725.508 210.729 724.836 210.868C723.375 211.16 721.865 211.089 720.438 210.662C719.011 210.235 717.71 209.466 716.649 208.42C716.541 208.33 716.471 208.202 716.454 208.062C716.436 207.923 716.473 207.781 716.556 207.668C716.644 207.556 716.772 207.484 716.913 207.466C717.054 207.449 717.196 207.488 717.309 207.574Z" fill="white"/>
<path d="M639.652 328.45C662.361 268.589 675.727 206.869 675.727 144.519V138.5L683.273 147.859V148C683.273 210.35 696.64 268.589 719.348 328.45C720.446 331.348 721.002 334.351 721 337.369C721 338.511 720.707 339.641 720.138 340.696C719.57 341.75 718.736 342.708 717.685 343.515C716.634 344.323 715.386 344.963 714.013 345.4C712.64 345.837 711.168 346.061 709.682 346.061H694.591H664.409H652.666V371.04C654.322 371.077 655.898 371.6 657.068 372.501C658.239 373.402 658.916 374.612 658.961 375.885C659.005 377.157 658.414 378.394 657.309 379.342C656.203 380.29 654.667 380.877 653.016 380.983C651.364 381.088 649.723 380.705 648.428 379.91C647.134 379.116 646.284 377.971 646.054 376.71C645.824 375.45 646.231 374.17 647.191 373.133C648.152 372.095 649.592 371.38 651.218 371.133V346.061H649.318C646.316 346.061 643.438 345.146 641.315 343.515C639.192 341.885 638 339.675 638 337.369C637.998 334.351 638.554 331.348 639.652 328.45Z" fill="#00A6FF"/>
<path d="M98.683 153H99.1909C97.61 153.001 96.0512 153.37 94.6372 154.077H96.9484C99.4387 154.08 101.826 155.071 103.587 156.833C105.348 158.594 106.339 160.983 106.342 163.474V188.367C106.339 190.858 105.348 193.247 103.587 195.008C101.826 196.77 99.4387 197.761 96.9484 197.764H95.475C96.6589 198.228 97.9191 198.468 99.1909 198.469H98.683C95.9564 198.466 93.3423 197.381 91.4143 195.453C89.4863 193.524 88.4017 190.909 88.3986 188.181V163.288C88.4017 160.561 89.4863 157.946 91.4143 156.017C93.3423 154.088 95.9564 153.003 98.683 153Z" fill="#4BB7FF"/>
<path opacity="0.21" d="M98.683 153H99.1909C97.61 153.001 96.0512 153.37 94.6372 154.077H96.9484C99.4387 154.08 101.826 155.071 103.587 156.833C105.348 158.594 106.339 160.983 106.342 163.474V188.367C106.339 190.858 105.348 193.247 103.587 195.008C101.826 196.77 99.4387 197.761 96.9484 197.764H95.475C96.6589 198.228 97.9191 198.468 99.1909 198.469H98.683C95.9564 198.466 93.3423 197.381 91.4143 195.453C89.4863 193.524 88.4017 190.909 88.3986 188.181V163.288C88.4017 160.561 89.4863 157.946 91.4143 156.017C93.3423 154.088 95.9564 153.003 98.683 153Z" fill="black"/>
<path d="M164.634 153H165.142C163.561 153.001 162.002 153.37 160.588 154.077H162.9C165.39 154.08 167.777 155.071 169.538 156.833C171.299 158.594 172.29 160.983 172.293 163.474V188.367C172.29 190.858 171.299 193.247 169.538 195.008C167.777 196.77 165.39 197.761 162.9 197.764H161.426C162.61 198.228 163.87 198.468 165.142 198.469H164.634C161.908 198.466 159.293 197.381 157.365 195.453C155.437 193.524 154.353 190.909 154.35 188.181V163.288C154.353 160.561 155.437 157.946 157.365 156.017C159.293 154.088 161.908 153.003 164.634 153Z" fill="#01DF5D"/>
<path opacity="0.21" d="M164.634 153H165.142C163.561 153.001 162.002 153.37 160.588 154.077H162.9C165.39 154.08 167.777 155.071 169.538 156.833C171.299 158.594 172.29 160.983 172.293 163.474V188.367C172.29 190.858 171.299 193.247 169.538 195.008C167.777 196.77 165.39 197.761 162.9 197.764H161.426C162.61 198.228 163.87 198.468 165.142 198.469H164.634C161.908 198.466 159.293 197.381 157.365 195.453C155.437 193.524 154.353 190.909 154.35 188.181V163.288C154.353 160.561 155.437 157.946 157.365 156.017C159.293 154.088 161.908 153.003 164.634 153Z" fill="black"/>
<path d="M162.8 197.841C165.29 197.838 167.678 196.847 169.439 195.086C171.2 193.324 172.19 190.936 172.193 188.444V163.551C172.19 161.06 171.2 158.672 169.439 156.91C167.678 155.148 165.29 154.158 162.8 154.155H160.489C161.903 153.448 163.462 153.079 165.043 153.077H189.927C192.653 153.081 195.267 154.165 197.195 156.094C199.123 158.023 200.208 160.638 200.211 163.366V188.259C200.208 190.986 199.123 193.601 197.195 195.53C195.267 197.459 192.653 198.544 189.927 198.547H165.043C163.771 198.545 162.511 198.306 161.327 197.841L162.8 197.841Z" fill="#01DF5D"/>
<path d="M96.8491 197.841C99.3394 197.838 101.727 196.847 103.488 195.086C105.249 193.324 106.239 190.936 106.242 188.444V163.551C106.239 161.06 105.249 158.672 103.488 156.91C101.727 155.148 99.3394 154.158 96.8491 154.155H94.5379C95.9519 153.448 97.5107 153.079 99.0915 153.077H123.975C126.702 153.081 129.316 154.165 131.244 156.094C133.172 158.023 134.257 160.638 134.26 163.366V188.259C134.257 190.986 133.172 193.601 131.244 195.53C129.316 197.459 126.702 198.544 123.975 198.547H99.0914C97.8197 198.545 96.5595 198.306 95.3756 197.841L96.8491 197.841Z" fill="#4BB7FF"/>
<path d="M71.0168 159.745C61.8847 172.313 53.5302 185.429 46 199.018H61.5787C64.3052 199.014 66.9188 197.929 68.8467 196C70.7746 194.072 71.8595 191.457 71.8635 188.73V163.837C71.8644 162.43 71.5762 161.037 71.0168 159.745Z" fill="#1CF3D3"/>
<path d="M570.115 676.755C568.675 680.735 567.238 684.715 565.805 688.695C565.535 689.455 565.255 690.205 564.985 690.965C561.325 701.105 557.661 711.249 553.995 721.395C552.835 721.975 551.665 722.545 550.495 723.115C549.525 723.585 548.545 724.055 547.575 724.515C547.305 724.645 547.045 724.775 546.775 724.895C545.965 725.275 545.155 725.655 544.345 726.025C543.465 726.445 542.575 726.845 541.695 727.245C540.705 727.695 539.725 728.135 538.735 728.575C538.22 727.235 537.926 725.82 537.865 724.385C537.822 722.133 538.088 719.886 538.655 717.705C539.525 714.105 540.905 710.575 541.815 706.965C541.865 706.795 541.905 706.615 541.945 706.445C543.973 697.827 543.036 688.776 539.285 680.755C537.025 675.975 533.785 671.625 532.375 666.525C531.15 661.736 531.693 656.666 533.905 652.245C534.726 650.531 535.757 648.925 536.975 647.465C537.265 647.095 537.575 646.745 537.895 646.395C540.836 643.164 544.744 640.972 549.035 640.145C557.245 638.685 565.825 643.055 570.415 649.915C572.296 652.672 573.442 655.862 573.745 659.185C574.245 665.195 572.165 671.085 570.115 676.755Z" fill="#1B2E7F"/>
<path d="M547.445 717.375C545.565 713.905 542.415 710.865 541.815 706.965C539.865 694.445 535.165 685.465 527.375 680.375C525.115 678.905 524.755 675.655 523.365 673.315C522.745 672.265 522.115 671.215 521.465 670.185C520.415 668.475 519.321 666.799 518.185 665.155C516.03 661.979 513.654 658.958 511.075 656.115C510.005 654.925 508.875 653.775 507.705 652.685L507.695 652.675C506.965 651.975 506.225 651.305 505.455 650.655C505.155 650.395 504.845 650.135 504.525 649.875L504.505 649.855C503.153 648.684 501.738 647.589 500.265 646.575C496.875 644.285 493.045 642.695 489.115 643.965C487.57 644.495 486.082 645.178 484.675 646.005C483.955 646.415 483.245 646.845 482.535 647.275C482.055 647.565 481.575 647.855 481.095 648.155C480.705 648.385 480.315 648.615 479.925 648.835C476.905 650.575 473.871 652.282 470.825 653.955C470.385 654.205 469.945 654.445 469.495 654.685H469.485C469.175 654.865 468.855 655.035 468.535 655.205C467.925 655.545 467.305 655.885 466.695 656.215C464.865 657.205 463.031 658.185 461.195 659.155C460.255 659.655 459.305 660.135 458.355 660.615C457.915 660.835 457.475 661.055 457.045 661.285H457.035C456.875 661.365 456.725 661.445 456.565 661.525C455.265 662.195 453.985 662.885 452.745 663.635C449.148 665.802 446.023 668.668 443.555 672.065C443.075 672.725 442.615 673.405 442.195 674.105C441.644 675.011 441.143 675.945 440.695 676.905C440.385 677.555 440.095 678.205 439.835 678.865V678.875C437.376 685.196 437.032 692.143 438.855 698.675V698.685C438.975 699.135 439.105 699.575 439.255 700.015C439.495 700.755 439.765 701.495 440.065 702.215C440.395 703.018 440.769 703.803 441.185 704.565V704.575C443.41 708.371 446.187 711.816 449.425 714.795L449.525 714.895C449.925 715.285 450.335 715.685 450.735 716.075C450.955 716.285 451.185 716.495 451.425 716.695C454.885 719.665 460.475 721.915 463.635 724.965C465.325 726.595 466.315 728.445 465.925 730.755C464.885 736.885 465.115 740.855 466.175 743.405C469.055 750.365 478.095 746.825 484.285 748.195C484.945 748.015 485.605 747.825 486.255 747.635C500.252 743.651 514.016 738.89 527.485 733.375C531.255 731.835 535.015 730.235 538.735 728.575C539.725 728.135 540.705 727.695 541.695 727.245C542.575 726.845 543.465 726.445 544.345 726.025C545.155 725.655 545.965 725.275 546.775 724.895C547.045 724.775 547.305 724.645 547.575 724.515C548.545 724.055 549.525 723.585 550.495 723.115C549.505 721.185 548.475 719.275 547.445 717.375Z" fill="#1B2E7F"/>
<path d="M474.28 620.289C476.382 613.941 473.491 609.753 466.054 607.531C465.8 607.301 465.492 607.138 465.159 607.057C464.826 606.977 464.477 606.981 464.146 607.07C463.815 607.159 463.511 607.329 463.263 607.566C463.015 607.803 462.83 608.098 462.725 608.424L456.232 627.665C449.44 625.927 444.458 627.118 443.376 633.836C446.056 626.993 443.535 622.7 435.993 620.87C435.748 620.625 435.445 620.447 435.113 620.351C434.78 620.255 434.429 620.245 434.092 620.322C433.754 620.398 433.442 620.559 433.183 620.788C432.924 621.018 432.728 621.309 432.612 621.636L428.342 638.965C423.141 646.8 420.587 656.094 421.054 665.486C421.522 674.878 424.985 683.873 430.938 691.153C436.891 698.432 445.019 703.614 454.131 705.937C463.243 708.259 472.86 707.602 481.571 704.061C490.282 700.519 497.63 694.28 502.536 686.258C507.443 678.236 509.65 668.853 508.835 659.485C508.019 650.117 504.224 641.256 498.006 634.202C491.787 627.149 483.472 622.273 474.28 620.289Z" fill="#1B2E7F"/>
<path d="M466.217 667.236C468.305 666.115 469.649 664.556 469.218 663.753C468.787 662.949 466.744 663.207 464.656 664.327C462.568 665.448 461.224 667.008 461.655 667.811C462.086 668.614 464.129 668.357 466.217 667.236Z" fill="white"/>
<path d="M444.02 668.597C444.303 667.228 444.882 665.937 445.718 664.816C446.554 663.695 447.626 662.772 448.858 662.11C450.09 661.449 451.452 661.067 452.848 660.99C454.245 660.913 455.641 661.143 456.938 661.665C457.59 659.67 457.637 657.525 457.071 655.504C456.505 653.482 455.352 651.673 453.758 650.307C452.164 648.94 450.201 648.077 448.117 647.826C446.032 647.575 443.92 647.948 442.047 648.898C440.175 649.847 438.626 651.331 437.597 653.161C436.567 654.99 436.104 657.084 436.264 659.178C436.425 661.271 437.203 663.27 438.499 664.921C439.796 666.572 441.553 667.802 443.549 668.455C443.705 668.506 443.862 668.553 444.02 668.597Z" fill="white"/>
<path d="M447.192 664.743C449.209 664.743 450.843 663.108 450.843 661.091C450.843 659.075 449.209 657.44 447.192 657.44C445.175 657.44 443.54 659.075 443.54 661.091C443.54 663.108 445.175 664.743 447.192 664.743Z" fill="#1B2E7F"/>
<path d="M469.296 655.456C469.579 654.087 470.159 652.796 470.995 651.675C471.83 650.555 472.902 649.631 474.134 648.97C475.366 648.309 476.729 647.926 478.125 647.849C479.521 647.772 480.917 648.003 482.214 648.525C482.867 646.529 482.913 644.385 482.347 642.363C481.781 640.341 480.628 638.533 479.034 637.166C477.441 635.8 475.477 634.936 473.393 634.685C471.308 634.435 469.196 634.808 467.324 635.757C465.451 636.707 463.902 638.19 462.873 640.02C461.843 641.85 461.38 643.944 461.54 646.037C461.701 648.13 462.479 650.129 463.776 651.78C465.072 653.432 466.829 654.661 468.825 655.314C468.981 655.365 469.138 655.413 469.296 655.456Z" fill="white"/>
<path d="M473.808 651.399C475.825 651.399 477.46 649.764 477.46 647.747C477.46 645.731 475.825 644.096 473.808 644.096C471.792 644.096 470.157 645.731 470.157 647.747C470.157 649.764 471.792 651.399 473.808 651.399Z" fill="#1B2E7F"/>
<path d="M492.133 647.494L479.665 660.199L480.924 661.434L493.391 648.729L492.133 647.494Z" fill="white"/>
<path d="M496.095 653.642L481.031 663.125L481.97 664.618L497.034 655.134L496.095 653.642Z" fill="white"/>
<path d="M452.918 674.552L435.439 677.917L435.772 679.649L453.252 676.283L452.918 674.552Z" fill="white"/>
<path d="M454.602 677.308L438.371 684.617L439.095 686.225L455.326 678.915L454.602 677.308Z" fill="white"/>
<path d="M451.671 716.699C457.521 716.699 462.264 711.957 462.264 706.107C462.264 700.256 457.521 695.514 451.671 695.514C445.82 695.514 441.078 700.256 441.078 706.107C441.078 711.957 445.82 716.699 451.671 716.699Z" fill="#0C1D6A"/>
<path d="M486.255 747.635C485.605 747.825 484.945 748.015 484.285 748.195C478.295 749.875 472.261 751.412 466.185 752.805C465.485 751.393 465.11 749.842 465.086 748.267C465.062 746.691 465.39 745.13 466.047 743.697C466.703 742.264 467.671 740.996 468.879 739.984C470.088 738.973 471.507 738.244 473.033 737.851C474.559 737.458 476.154 737.41 477.701 737.712C479.248 738.013 480.708 738.656 481.975 739.594C483.242 740.531 484.283 741.74 485.024 743.131C485.764 744.522 486.185 746.061 486.255 747.635Z" fill="#0C1D6A"/>
<path d="M546.775 724.896C545.965 725.276 545.155 725.656 544.345 726.026C543.465 726.446 542.575 726.846 541.695 727.246C540.705 727.696 539.725 728.136 538.735 728.576C535.015 730.236 531.255 731.836 527.485 733.376C527.435 733.296 527.385 733.206 527.335 733.116C526.014 730.641 525.729 727.743 526.542 725.058C527.355 722.373 529.2 720.12 531.672 718.794C534.144 717.467 537.041 717.175 539.728 717.981C542.415 718.788 544.672 720.627 546.005 723.096C546.311 723.673 546.569 724.275 546.775 724.896Z" fill="#0C1D6A"/>
<path d="M489.032 690.698C494.883 690.698 499.625 685.956 499.625 680.106C499.625 674.255 494.883 669.513 489.032 669.513C483.182 669.513 478.44 674.255 478.44 680.106C478.44 685.956 483.182 690.698 489.032 690.698Z" fill="#0C1D6A"/>
<defs>
<linearGradient id="paint0_linear_307_421" x1="381.5" y1="0" x2="381.5" y2="762" gradientUnits="userSpaceOnUse">
<stop stop-color="#7FF3B2"/>
<stop offset="1" stop-color="#4BB7FF"/>
</linearGradient>
<linearGradient id="paint1_linear_307_421" x1="385.464" y1="181.526" x2="385.464" y2="639.98" gradientUnits="userSpaceOnUse">
<stop stop-color="#01E773"/>
<stop offset="1" stop-color="#009F6F"/>
</linearGradient>
<linearGradient id="paint2_linear_307_421" x1="376.462" y1="390.042" x2="376.462" y2="535.048" gradientUnits="userSpaceOnUse">
<stop stop-color="#01E773"/>
<stop offset="1" stop-color="#009F6F"/>
</linearGradient>
</defs>
</svg>
