<svg width="763" height="295" viewBox="0 0 763 295" fill="none" xmlns="http://www.w3.org/2000/svg">
<path d="M-278 66.0077L-275.652 66.0489L-273.305 66.073L-270.957 66.08L-268.61 66.0698L-266.262 66.0425L-263.914 65.9982L-261.567 65.9368L-259.219 65.8584L-256.871 65.763L-254.524 65.6506L-252.176 65.5214L-249.829 65.3753L-247.481 65.2125L-245.133 65.033L-242.786 64.837L-240.438 64.6245L-238.09 64.3957L-235.743 64.1506L-233.395 63.8894L-231.048 63.6123L-228.7 63.3193L-226.352 63.0106L-224.005 62.6864L-221.657 62.3469L-219.31 61.9922L-216.962 61.6225L-214.614 61.238L-212.267 60.8389L-209.919 60.4254L-207.571 59.9977L-205.224 59.5561L-202.876 59.1008L-200.529 58.6319L-198.181 58.1498L-195.833 57.6547L-193.486 57.1469L-191.138 56.6265L-188.79 56.094L-186.443 55.5495L-184.095 54.9934L-181.748 54.4259L-179.4 53.8473L-177.052 53.258L-174.705 52.6582L-172.357 52.0482L-170.01 51.4284L-167.662 50.799L-165.314 50.1605L-162.967 49.5131L-160.619 48.8572L-158.271 48.1931L-155.924 47.5211L-153.576 46.8417L-151.229 46.1551L-148.881 45.4617L-146.533 44.7619L-144.186 44.056L-141.838 43.3444L-139.49 42.6275L-137.143 41.9056L-134.795 41.1791L-132.448 40.4484L-130.1 39.7138L-127.752 38.9759L-125.405 38.2348L-123.057 37.491L-120.71 36.745L-118.362 35.997L-99.5809 29.9907L-97.2333 29.2429L-94.8857 28.4971L-92.5381 27.7537L-90.1905 27.013L-87.8428 26.2754L-85.4952 25.5413L-83.1476 24.8111L-80.8 24.0852L-78.4524 23.3639L-76.1048 22.6476L-73.7571 21.9367L-71.4095 21.2315L-69.0619 20.5324L-66.7143 19.8399L-64.3667 19.1541L-62.019 18.4756L-59.6714 17.8046L-57.3238 17.1415L-54.9762 16.4866L-52.6286 15.8402L-50.2809 15.2028L-47.9333 14.5747L-45.5857 13.956L-43.2381 13.3473L-40.8905 12.7488L-38.5429 12.1607L-36.1952 11.5835L-33.8476 11.0174L-31.5 10.4627L-29.1524 9.91967L-26.8048 9.38862L-24.4572 8.86981L-22.1095 8.36352L-19.7619 7.87001L-17.4143 7.38953L-15.0667 6.92233L-12.7191 6.46865L-10.3714 6.02874L-8.0238 5.6028L-5.67618 5.19108L-3.32858 4.79377L-0.980957 4.41109L1.36667 4.04323L3.71429 3.69038L6.06192 3.35273L8.40952 3.03045L10.7571 2.72371L13.1048 2.43267L15.4524 2.15747L17.8 1.89826L20.1476 1.65518L22.4952 1.42835L24.8429 1.21788L27.1905 1.0239L29.5381 0.846486L31.8857 0.685742L34.2333 0.541753L36.581 0.414589L38.9286 0.304318L41.2762 0.210996L43.6238 0.134668L45.9714 0.0753848L48.3191 0.0331679L50.6667 0.00804349L53.0143 0L55.3619 0.00908617L57.7095 0.0352705L60.0571 0.0785472L62.4048 0.138882L64.7524 0.216255L67.1 0.310623L69.4476 0.421939L71.7952 0.55014L74.1429 0.695166L76.4905 0.856938L78.8381 1.03538L81.1857 1.23038L83.5333 1.44186L85.881 1.66969L88.2286 1.91377L90.5762 2.17397L92.9238 2.45015L95.2714 2.74217L97.619 3.04987L99.9667 3.3731L102.314 3.71169L104.662 4.06547L107.01 4.43425L109.357 4.81784L111.705 5.21604L114.052 5.62865L116.4 6.05545L118.748 6.49622L121.095 6.95074L123.443 7.41877L125.79 7.90006L128.138 8.39437L130.486 8.90143L132.833 9.421L135.181 9.95279L137.529 10.4965L139.876 11.052L142.224 11.6188L144.571 12.1967L146.919 12.7854L149.267 13.3845L151.614 13.9939L153.962 14.6131L156.31 15.2419L158.657 15.8798L161.005 16.5267L163.352 17.1821L165.7 17.8457L168.048 18.5172L170.395 19.1962L172.743 19.8824L175.09 20.5754L177.438 21.2748L179.786 21.9803L182.133 22.6916L184.481 23.4082L186.829 24.1298L189.176 24.856L191.524 25.5865L193.871 26.3208L196.219 27.0586L198.567 27.7994L200.914 28.543L203.262 29.289L205.61 30.0368L224.39 36.0432L226.738 36.791L229.086 37.5369L231.433 38.2806L233.781 39.0214L236.129 39.7592L238.476 40.4935L240.824 41.224L243.171 41.9502L245.519 42.6718L247.867 43.3884L250.214 44.0997L252.562 44.8052L254.91 45.5046L257.257 46.1976L259.605 46.8838L261.952 47.5628L264.3 48.2343L266.648 48.8979L268.995 49.5533L271.343 50.2002L273.69 50.8381L276.038 51.4669L278.386 52.0861L280.733 52.6955L283.081 53.2946L285.429 53.8833L287.776 54.4612L290.124 55.028L292.471 55.5835L294.819 56.1272L297.167 56.659L299.514 57.1786L301.862 57.6856L304.21 58.1799L306.557 58.6612L308.905 59.1293L311.252 59.5838L313.6 60.0245L315.948 60.4514L318.295 60.864L320.643 61.2622L322.99 61.6458L325.338 62.0145L327.686 62.3683L330.033 62.7069L332.381 63.0301L334.729 63.3378L337.076 63.6299L339.424 63.906L341.771 64.1662L344.119 64.4103L346.467 64.6381L348.814 64.8496L351.162 65.0446L353.51 65.2231L355.857 65.3848L358.205 65.5299L360.552 65.6581L362.9 65.7694L365.248 65.8637L367.595 65.9411L369.943 66.0014L372.29 66.0447L374.638 66.0709L376.986 66.08V66.0719L379.333 66.08V66.072L381.681 66.0468L384.029 66.0046L386.376 65.9454L388.724 65.869L391.071 65.7757L393.419 65.6655L395.767 65.5383L398.114 65.3943L400.462 65.2335L402.81 65.0561L405.157 64.8621L407.505 64.6517L409.852 64.4249L412.2 64.1818L414.548 63.9226L416.895 63.6474L419.243 63.3563L421.59 63.0496L423.938 62.7273L426.286 62.3896L428.633 62.0368L430.981 61.6689L433.329 61.2863L435.676 60.889L438.024 60.4772L440.371 60.0513L442.719 59.6114L445.067 59.1577L447.414 58.6905L449.762 58.21L452.109 57.7165L454.457 57.2102L456.805 56.6914L459.152 56.1604L461.5 55.6173L463.848 55.0626L466.195 54.4965L468.543 53.9193L470.891 53.3313L473.238 52.7327L475.586 52.124L477.933 51.5054L480.281 50.8772L482.629 50.2398L484.976 49.5935L487.324 48.9386L489.671 48.2755L492.019 47.6044L494.367 46.9259L496.714 46.2402L499.062 45.5476L501.41 44.8485L503.757 44.1434L506.105 43.4325L508.452 42.7162L510.8 41.9949L513.148 41.2689L515.495 40.5387L517.843 39.8046L520.19 39.067L522.538 38.3263L524.886 37.5829L527.233 36.8371L529.581 36.0893L548.362 30.083L550.71 29.3351L553.057 28.589L555.405 27.8452L557.752 27.1042L560.1 26.3662L562.448 25.6316L564.795 24.901L567.143 24.1745L569.49 23.4526L571.838 22.7356L574.186 22.024L576.533 21.3181L578.881 20.6183L581.229 19.9249L583.576 19.2383L585.924 18.5589L588.271 17.8869L590.619 17.2228L592.967 16.5669L595.314 15.9195L597.662 15.281L600.01 14.6516L602.357 14.0318L604.705 13.4218L607.052 12.822L609.4 12.2327L611.748 11.6541L614.095 11.0866L616.443 10.5305L618.79 9.986L621.138 9.45346L623.486 8.93313L625.833 8.42528L628.181 7.93018L630.529 7.44808L632.876 6.97923L635.224 6.52387L637.571 6.08225L639.919 5.65458L642.267 5.24109L644.614 4.84199L646.962 4.4575L649.31 4.0878L651.657 3.73309L654.005 3.39356L656.352 3.06938L658.7 2.76071L661.048 2.46772L663.395 2.19056L665.743 1.92938L668.09 1.6843L670.438 1.45546L672.786 1.24297L675.133 1.04695L677.481 0.867488L679.829 0.704685L682.176 0.558624L684.524 0.429384L686.871 0.317028L689.219 0.221611L691.567 0.14319L693.914 0.0818013L696.262 0.0374761L698.609 0.0102406L699.695 0.00555215V0L700.452 0.00228442L700.957 0.000103122V0.00380934L701.5 0.00544804L702.043 0.00380934V0.000103122L702.548 0.00228442L703.305 0V0.00555215L704.391 0.0102406L706.738 0.0374761L709.086 0.0818013L711.433 0.14319L713.781 0.221611L716.129 0.317028L718.476 0.429384L720.824 0.558624L723.171 0.704685L725.519 0.867488L727.867 1.04695L730.214 1.24297L732.562 1.45546L734.91 1.6843L737.257 1.92938L739.605 2.19056L741.952 2.46772L744.3 2.76071L746.648 3.06938L748.995 3.39356L751.343 3.73309L753.69 4.0878L756.038 4.4575L758.386 4.84199L760.733 5.24109L763.081 5.65458L765.429 6.08225L767.776 6.52387L770.124 6.97923L772.471 7.44808L774.819 7.93018L777.167 8.42528L779.514 8.93313L781.862 9.45346L784.209 9.986L786.557 10.5305L788.905 11.0866L791.252 11.6541L793.6 12.2327L795.948 12.822L798.295 13.4218L800.643 14.0318L802.99 14.6516L805.338 15.281L807.686 15.9195L810.033 16.5669L812.381 17.2228L814.729 17.8869L817.076 18.5589L819.424 19.2383L821.771 19.9249L824.119 20.6183L826.467 21.3181L828.814 22.024L831.162 22.7356L833.51 23.4526L835.857 24.1745L838.205 24.901L840.552 25.6316L842.9 26.3662L845.248 27.1042L847.595 27.8452L849.943 28.589L852.291 29.3351L854.638 30.083L873.419 36.0893L875.767 36.8371L878.114 37.5829L880.462 38.3263L882.81 39.067L885.157 39.8046L887.505 40.5387L889.852 41.2689L892.2 41.9949L894.548 42.7162L896.895 43.4325L899.243 44.1434L901.59 44.8485L903.938 45.5476L906.286 46.2402L908.633 46.9259L910.981 47.6044L913.329 48.2755L915.676 48.9386L918.024 49.5935L920.371 50.2398L922.719 50.8772L925.067 51.5054L927.414 52.124L929.762 52.7327L932.109 53.3313L934.457 53.9193L936.805 54.4965L939.152 55.0626L941.5 55.6173L943.848 56.1604L946.195 56.6914L948.543 57.2102L950.891 57.7165L953.238 58.21L955.586 58.6905L957.933 59.1577L960.281 59.6114L962.629 60.0513L964.976 60.4772L967.324 60.889L969.671 61.2863L972.019 61.6689L974.367 62.0368L976.714 62.3896L979.062 62.7273L981.41 63.0496L983.757 63.3563L986.105 63.6474L988.452 63.9226L990.8 64.1818L993.148 64.4249L995.495 64.6517L997.843 64.8621L1000.19 65.0561L1002.54 65.2335L1004.89 65.3943L1007.23 65.5383L1009.58 65.6655L1011.93 65.7757L1014.28 65.869L1016.62 65.9454L1018.97 66.0046L1021.32 66.0468L1023.67 66.072V66.08L1026.01 66.0719V66.08L1028.36 66.0709L1030.71 66.0447L1033.06 66.0014L1035.4 65.9411L1037.75 65.8637L1040.1 65.7694L1042.45 65.6581L1044.8 65.5299L1047.14 65.3848L1049.49 65.2231L1051.84 65.0446L1054.19 64.8496L1056.53 64.6381L1058.88 64.4103L1061.23 64.1662L1063.58 63.906L1065.92 63.6299L1068.27 63.3378L1070.62 63.0301L1072.97 62.7069L1075.31 62.3683L1077.66 62.0145L1080.01 61.6458L1082.36 61.2622L1084.7 60.864L1087.05 60.4514L1089.4 60.0245L1091.75 59.5838L1094.1 59.1293L1096.44 58.6612L1098.79 58.1799L1101.14 57.6856L1103.49 57.1786L1105.83 56.659L1108.18 56.1272L1110.53 55.5835L1112.88 55.028L1115.22 54.4612L1117.57 53.8833L1119.92 53.2946L1122.27 52.6955L1124.61 52.0861L1126.96 51.4669L1129.31 50.8381L1131.66 50.2002L1134 49.5533L1136.35 48.8979L1138.7 48.2343L1141.05 47.5628L1143.4 46.8838L1145.74 46.1976L1148.09 45.5046L1150.44 44.8052L1152.79 44.0997L1155.13 43.3884L1157.48 42.6718L1159.83 41.9502L1162.18 41.224L1164.52 40.4935L1166.87 39.7592L1169.22 39.0214L1171.57 38.2806L1173.91 37.5369L1176.26 36.791L1178.61 36.0432L1197.39 30.0368L1199.74 29.289L1202.09 28.543L1204.43 27.7994L1206.78 27.0586L1209.13 26.3208L1211.48 25.5865L1213.82 24.856L1216.17 24.1298L1218.52 23.4082L1220.87 22.6916L1223.21 21.9803L1225.56 21.2748L1227.91 20.5754L1230.26 19.8824L1232.6 19.1962L1234.95 18.5172L1237.3 17.8457L1239.65 17.1821L1242 16.5267L1244.34 15.8798L1246.69 15.2419L1249.04 14.6131L1251.39 13.9939L1253.73 13.3845L1256.08 12.7854L1258.43 12.1967L1260.78 11.6188L1263.12 11.052L1265.47 10.4965L1267.82 9.95279L1270.17 9.421L1272.51 8.90143L1274.86 8.39437L1277.21 7.90006L1279.56 7.41877L1281.9 6.95074L1284.25 6.49622L1286.6 6.05545L1288.95 5.62865L1291.3 5.21604L1293.64 4.81784L1295.99 4.43425L1298.34 4.06547L1300.69 3.71169L1303.03 3.3731L1305.38 3.04987L1307.73 2.74217L1310.08 2.45015L1312.42 2.17397L1314.77 1.91377L1317.12 1.66969L1319.47 1.44186L1321.81 1.23038L1324.16 1.03538L1326.51 0.856938L1328.86 0.695166L1331.2 0.55014L1333.55 0.421939L1335.9 0.310623L1338.25 0.216255L1340.6 0.138882L1342.94 0.0785472L1345.29 0.0352705L1347.64 0.00908617L1349.99 0L1352.33 0.00804349L1354.68 0.0331679L1357.03 0.0753848L1359.38 0.134668L1361.72 0.210996L1364.07 0.304318L1366.42 0.414589L1368.77 0.541753L1371.11 0.685742L1373.46 0.846486L1375.81 1.0239L1378.16 1.21788L1380.5 1.42835L1382.85 1.65518L1385.2 1.89826L1387.55 2.15747L1389.9 2.43267L1392.24 2.72371L1394.59 3.03045L1396.94 3.35273L1399.29 3.69038L1401.63 4.04323L1403.98 4.41109L1406.33 4.79377L1408.68 5.19108L1411.02 5.6028L1413.37 6.02874L1415.72 6.46865L1418.07 6.92233L1420.41 7.38953L1422.76 7.87001L1425.11 8.36352L1427.46 8.86981L1429.8 9.38862L1432.15 9.91967L1434.5 10.4627L1436.85 11.0174L1439.2 11.5835L1441.54 12.1607L1443.89 12.7488L1446.24 13.3473L1448.59 13.956L1450.93 14.5747L1453.28 15.2028L1455.63 15.8402L1457.98 16.4866L1460.32 17.1415L1462.67 17.8046L1465.02 18.4756L1467.37 19.1541L1469.71 19.8399L1472.06 20.5324L1474.41 21.2315L1476.76 21.9367L1479.1 22.6476L1481.45 23.3639L1483.8 24.0852L1486.15 24.8111L1488.5 25.5413L1490.84 26.2754L1493.19 27.013L1495.54 27.7537L1497.89 28.4971L1500.23 29.2429L1502.58 29.9907L1521.36 35.997L1523.71 36.745L1526.06 37.491L1528.4 38.2348L1530.75 38.9759L1533.1 39.7138L1535.45 40.4484L1537.8 41.1791L1540.14 41.9056L1542.49 42.6275L1544.84 43.3444L1547.19 44.056L1549.53 44.7619L1551.88 45.4617L1554.23 46.1551L1556.58 46.8417L1558.92 47.5211L1561.27 48.1931L1563.62 48.8572L1565.97 49.5131L1568.31 50.1605L1570.66 50.799L1573.01 51.4284L1575.36 52.0482L1577.7 52.6582L1580.05 53.258L1582.4 53.8473L1584.75 54.4259L1587.1 54.9934L1589.44 55.5495L1591.79 56.094L1594.14 56.6265L1596.49 57.1469L1598.83 57.6547L1601.18 58.1498L1603.53 58.6319L1605.88 59.1008L1608.22 59.5561L1610.57 59.9977L1612.92 60.4254L1615.27 60.8389L1617.61 61.238L1619.96 61.6225L1622.31 61.9922L1624.66 62.3469L1627 62.6864L1629.35 63.0106L1631.7 63.3193L1634.05 63.6123L1636.4 63.8894L1638.74 64.1506L1641.09 64.3957L1643.44 64.6245L1645.79 64.837L1648.13 65.033L1650.48 65.2125L1652.83 65.3753L1655.18 65.5214L1657.52 65.6506L1659.87 65.763L1662.22 65.8584L1664.57 65.9368L1666.91 65.9982L1669.26 66.0425L1671.61 66.0698L1673.96 66.08L1676.3 66.073L1678.65 66.0489L1681 66.0077V825H-278V66.0077Z" fill="#D7FDF6" fill-opacity="0.45"/>
</svg>
