<svg width="843" height="803" viewBox="0 0 843 803" fill="none" xmlns="http://www.w3.org/2000/svg">
<rect x="287.951" y="3.00061" width="277.953" height="563.11" fill="url(#paint0_linear_307_488)"/>
<path d="M756.727 215.835C749.196 202.245 740.842 189.13 731.71 176.562C725.311 167.744 718.549 159.221 711.425 150.992H711.408C698.517 136.095 684.498 122.214 669.475 109.472C666.4 106.86 663.284 104.301 660.126 101.796C631.621 79.1104 600.011 60.6329 566.261 46.928L566.56 96.2649L569.79 658.678H289.873L274.131 97.3261L275.304 48.777C138.069 106.516 41.7106 242.27 41.7106 400.547C41.685 433.216 45.8514 465.754 54.1076 497.362C57.5949 510.723 61.8168 523.882 66.7542 536.777C68.5366 541.458 70.4171 546.097 72.3956 550.695C73.3492 552.932 74.3207 555.152 75.3278 557.363C76.62 560.252 77.9658 563.132 79.3472 565.976C80.4167 568.214 81.5159 570.436 82.6448 572.645C84.0975 575.542 85.5977 578.416 87.1455 581.266C88.3397 583.504 89.5696 585.724 90.8174 587.935C110.947 623.554 136.652 655.716 166.955 683.198C175.591 691.034 184.578 698.464 193.915 705.486C259.981 755.148 340.384 782 423.023 782C505.662 782 586.066 755.148 652.132 705.486C657.212 701.671 662.188 697.727 667.06 693.656C670.295 690.963 673.477 688.22 676.605 685.426C677.434 684.687 678.263 683.947 679.083 683.198C707.02 657.862 731.064 628.537 750.434 596.173C757.548 584.307 763.999 572.056 769.756 559.476C771.28 556.16 772.757 552.813 774.186 549.437C780.763 533.959 786.295 518.056 790.745 501.837C791.431 499.332 792.094 496.818 792.732 494.295V494.286C792.839 493.849 792.955 493.403 793.062 492.966C793.721 490.309 794.354 487.635 794.96 484.96V484.951C796.921 476.33 798.576 467.604 799.924 458.775C800.094 457.643 800.263 456.51 800.424 455.378C800.486 454.968 800.548 454.558 800.593 454.148V454.139C801.555 447.319 802.337 440.448 802.937 433.526C803.864 422.658 804.33 411.665 804.336 400.547C804.437 335.927 788.05 272.35 756.727 215.835Z" fill="url(#paint1_linear_307_488)"/>
<path d="M719.279 630.809C741.848 600.302 750.528 557.331 732.972 523.687C716.507 561.531 687.192 592.328 650.213 610.631C635.926 617.638 619.306 623.943 612.693 638.421C608.578 647.429 609.362 658.066 612.67 667.4C615.978 676.735 621.604 685.042 627.171 693.232L627.464 695.687C662.51 681.151 696.709 661.316 719.279 630.809Z" fill="#FDEA57"/>
<path d="M732.223 523.957C731.212 555.355 720.337 585.636 701.142 610.499C697.105 615.925 692.239 620.68 686.721 624.59C681.224 628.225 674.853 630.321 668.272 630.66C662.142 631.099 655.821 630.838 649.905 632.761C646.891 633.79 644.128 635.445 641.799 637.616C639.469 639.788 637.624 642.428 636.386 645.363C633.111 652.596 632.628 660.575 632.428 668.395C632.205 677.076 632.111 686.097 628.018 693.989C627.522 694.946 629.034 695.66 629.529 694.705C636.651 680.974 632.026 664.917 636.271 650.483C638.251 643.747 642.273 637.568 648.994 634.869C654.872 632.509 661.391 632.772 667.601 632.381C674.026 632.144 680.296 630.337 685.862 627.118C691.56 623.502 696.602 618.942 700.771 613.634C710.348 601.833 718.011 588.599 723.478 574.417C729.808 558.266 733.329 541.151 733.889 523.812C733.923 522.738 732.257 522.891 732.223 523.957Z" fill="white"/>
<path d="M707.794 602.857C712.401 605.512 717.802 606.443 723.031 605.482C728.261 604.522 732.979 601.733 736.343 597.614C737.021 596.778 735.755 595.686 735.076 596.522C731.95 600.364 727.555 602.961 722.684 603.845C717.812 604.73 712.785 603.843 708.509 601.345C707.58 600.803 706.87 602.318 707.794 602.857Z" fill="white"/>
<path d="M671.41 630.846C668.493 620.372 669.63 609.183 674.594 599.51C675.087 598.552 673.575 597.838 673.083 598.794C667.936 608.87 666.776 620.516 669.835 631.409C670.128 632.447 671.701 631.879 671.41 630.846Z" fill="white"/>
<path d="M727.592 558.343C725.595 557.688 723.793 556.546 722.346 555.021C720.9 553.496 719.854 551.636 719.304 549.607C719.025 548.566 717.453 549.136 717.73 550.17C718.348 552.409 719.505 554.462 721.1 556.15C722.694 557.839 724.678 559.111 726.877 559.855C727.078 559.943 727.305 559.951 727.512 559.877C727.719 559.803 727.89 559.653 727.99 559.457C728.084 559.256 728.095 559.027 728.02 558.818C727.946 558.61 727.792 558.439 727.592 558.343Z" fill="white"/>
<path d="M607.338 496.912C607.494 497.567 607.649 498.222 607.796 498.888C609.844 507.707 611.172 516.678 611.768 525.712C611.825 526.409 611.872 527.117 611.909 527.815C613.112 549.595 610.263 571.409 603.506 592.149C600.809 600.399 597.489 608.432 593.575 616.178C588.168 626.876 581.454 638.045 579.94 649.566C579.769 650.766 579.672 651.975 579.65 653.188L624.448 695.854C624.598 695.9 624.739 695.957 624.89 696.003L626.601 697.788C626.831 697.403 627.061 696.998 627.291 696.613C627.425 696.39 627.549 696.157 627.684 695.934C627.77 695.783 627.856 695.63 627.942 695.499C627.971 695.448 628 695.397 628.019 695.357C628.105 695.225 628.172 695.093 628.249 694.972C629.541 692.713 630.819 690.442 632.084 688.157C632.094 688.147 632.094 688.147 632.094 688.127C641.688 670.696 649.911 652.311 655.083 633.261C655.239 632.688 655.404 632.105 655.539 631.512C657.823 622.913 659.401 614.141 660.256 605.284C660.709 600.433 660.916 595.562 660.876 590.69C660.749 578.101 658.644 565.611 654.638 553.677C646.647 529.888 631.14 508.92 609.035 497.749C608.469 497.464 607.913 497.187 607.338 496.912Z" fill="#FDEA57"/>
<path d="M606.897 497.577C624.986 523.256 634.528 553.983 634.166 585.395C634.208 592.159 633.184 598.887 631.132 605.332C628.93 611.545 625.105 617.055 620.055 621.29C615.425 625.333 610.221 628.932 606.654 634.03C604.867 636.667 603.657 639.652 603.104 642.789C602.551 645.927 602.667 649.145 603.445 652.235C605.183 659.983 609.6 666.644 614.146 673.008C619.193 680.074 624.547 687.333 626.029 696.1C626.208 697.162 627.845 696.822 627.666 695.761C625.089 680.508 611.732 670.473 606.434 656.392C603.961 649.821 603.454 642.465 607.196 636.262C610.469 630.837 615.832 627.121 620.555 623.068C625.543 619.01 629.461 613.791 631.968 607.868C634.341 601.549 635.622 594.872 635.757 588.122C636.301 572.932 634.454 557.75 630.284 543.134C625.617 526.426 618.128 510.639 608.14 496.457C607.521 495.58 606.283 496.705 606.897 497.577Z" fill="white"/>
<path d="M634.878 575.288C640.154 574.633 645.026 572.123 648.624 568.207C652.221 564.29 654.31 559.222 654.517 553.907C654.555 552.831 652.886 552.721 652.848 553.798C652.665 558.748 650.718 563.469 647.361 567.109C644.003 570.749 639.456 573.069 634.539 573.65C633.47 573.777 633.815 575.414 634.878 575.288Z" fill="white"/>
<path d="M622.672 619.549C614.04 612.943 608.213 603.324 606.355 592.611C606.172 591.549 604.535 591.89 604.718 592.95C606.672 604.095 612.756 614.092 621.754 620.947C622.612 621.6 623.526 620.199 622.672 619.549Z" fill="white"/>
<path d="M623.895 527.822C621.906 528.5 619.78 528.675 617.707 528.328C615.634 527.982 613.68 527.126 612.019 525.838C611.17 525.175 610.257 526.577 611.101 527.236C612.942 528.651 615.102 529.593 617.391 529.981C619.68 530.368 622.03 530.189 624.234 529.459C624.447 529.408 624.633 529.277 624.754 529.094C624.874 528.91 624.921 528.687 624.883 528.471C624.837 528.254 624.707 528.065 624.522 527.943C624.337 527.822 624.112 527.778 623.895 527.822Z" fill="white"/>
<path d="M17.8011 459.948C-2.21546 427.707 -7.37587 384.173 12.8556 352.067C26.192 391.124 52.9085 424.203 88.2781 445.452C101.948 453.597 118.001 461.233 123.416 476.2C126.785 485.513 125.14 496.051 121.085 505.086C117.029 514.121 110.747 521.942 104.533 529.653L104.042 532.076C70.2924 514.739 37.8177 492.189 17.8011 459.948Z" fill="#FDEA57"/>
<path d="M13.58 352.397C12.0373 383.774 20.4164 414.839 37.5273 441.18C41.1103 446.916 45.5747 452.051 50.7562 456.396C55.9403 460.466 62.1193 463.073 68.6511 463.946C74.7251 464.882 81.0465 465.136 86.7871 467.533C89.7074 468.804 92.3262 470.678 94.4718 473.032C96.6174 475.386 98.2414 478.167 99.2371 481.193C101.914 488.669 101.747 496.661 101.312 504.47C100.828 513.141 100.189 522.14 103.628 530.339C104.044 531.332 102.479 531.921 102.063 530.929C96.0801 516.665 101.994 501.037 98.9362 486.305C97.5094 479.431 94.0032 472.945 87.5231 469.709C81.8564 466.879 75.338 466.611 69.1798 465.716C62.7953 464.958 56.6935 462.647 51.4074 458.986C46.0215 454.919 41.3668 449.964 37.6426 444.335C29.0562 431.794 22.4941 417.981 18.1969 403.402C13.2003 386.789 11.0812 369.444 11.9314 352.117C11.9844 351.045 13.6328 351.332 13.58 352.397Z" fill="white"/>
<path d="M31.5187 433.023C26.7111 435.294 21.2528 435.783 16.1185 434.401C10.9842 433.018 6.50823 429.855 3.48998 425.476C2.88232 424.588 4.23336 423.602 4.84183 424.491C7.64489 428.574 11.8145 431.52 16.5982 432.797C21.3819 434.075 26.4645 433.6 30.9287 431.457C31.8994 430.993 32.4838 432.561 31.5187 433.023Z" fill="white"/>
<path d="M65.5091 463.877C69.2676 453.674 69.0432 442.43 64.8808 432.386C64.4676 431.391 66.033 430.802 66.4457 431.795C70.7576 442.256 70.9673 453.958 67.0329 464.566C66.6572 465.577 65.1355 464.882 65.5091 463.877Z" fill="white"/>
<path d="M15.4027 387.047C17.4459 386.555 19.3352 385.564 20.9009 384.162C22.4665 382.759 23.6595 380.99 24.3727 379.013C24.7353 377.998 26.2565 378.694 25.8962 379.702C25.0981 381.883 23.7782 383.836 22.0518 385.389C20.3254 386.942 18.2451 388.048 15.9926 388.612C15.7848 388.683 15.5577 388.672 15.3576 388.581C15.1575 388.491 14.9994 388.327 14.9154 388.124C14.8383 387.917 14.8462 387.687 14.9375 387.485C15.0287 387.283 15.1959 387.126 15.4027 387.047Z" fill="white"/>
<path d="M140.25 335.595C140.041 336.236 139.833 336.876 139.633 337.528C136.875 346.151 134.823 354.984 133.495 363.939C133.381 364.63 133.277 365.332 133.183 366.024C130.215 387.634 131.282 409.608 136.332 430.828C138.35 439.271 141.006 447.547 144.279 455.586C148.799 466.688 154.583 478.365 155.156 489.971C155.229 491.181 155.227 492.395 155.151 493.605L107.035 532.488C106.881 532.522 106.736 532.567 106.582 532.601L104.731 534.241C104.534 533.838 104.337 533.416 104.14 533.013C104.024 532.78 103.919 532.538 103.803 532.305C103.73 532.147 103.656 531.988 103.581 531.85C103.556 531.797 103.532 531.744 103.516 531.702C103.44 531.564 103.385 531.427 103.318 531.3C102.214 528.944 101.124 526.576 100.049 524.196C100.04 524.185 100.04 524.185 100.042 524.165C91.8958 506.012 85.1933 487.019 81.5855 467.612C81.4772 467.028 81.3594 466.433 81.273 465.831C79.6953 457.075 78.8357 448.203 78.7028 439.307C78.6457 434.435 78.8351 429.563 79.2704 424.71C80.4193 412.174 83.5322 399.896 88.4951 388.327C98.3918 365.266 115.551 345.628 138.49 336.291C139.077 336.053 139.654 335.823 140.25 335.595Z" fill="#FDEA57"/>
<path d="M140.635 336.293C120.519 360.416 108.513 390.267 106.322 421.604C105.73 428.342 106.204 435.131 107.726 441.722C109.416 448.094 112.781 453.896 117.471 458.527C121.757 462.933 126.651 466.944 129.792 472.315C131.359 475.088 132.322 478.162 132.619 481.334C132.915 484.506 132.538 487.704 131.511 490.72C129.15 498.301 124.206 504.581 119.159 510.555C113.554 517.187 107.628 523.987 105.439 532.605C105.174 533.649 103.57 533.176 103.835 532.134C107.642 517.141 121.77 508.225 128.195 494.62C131.193 488.273 132.297 480.982 129.07 474.495C126.249 468.822 121.206 464.683 116.827 460.259C112.186 455.809 108.705 450.289 106.687 444.182C104.835 437.69 104.1 430.931 104.515 424.193C105.207 409.009 108.281 394.027 113.624 379.798C119.633 363.525 128.38 348.399 139.487 335.077C140.175 334.252 141.318 335.475 140.635 336.293Z" fill="white"/>
<path d="M106.434 411.472C101.228 410.391 96.5757 407.493 93.3082 403.297C90.0407 399.101 88.3706 393.88 88.5961 388.565C88.6073 388.349 88.7021 388.145 88.8606 387.997C89.0191 387.849 89.2288 387.768 89.4456 387.772C89.6624 387.775 89.8694 387.863 90.0229 388.016C90.1764 388.169 90.2644 388.376 90.2684 388.593C90.0493 393.541 91.6055 398.405 94.6561 402.306C97.7068 406.207 102.051 408.889 106.905 409.867C107.959 410.081 107.482 411.685 106.434 411.472Z" fill="white"/>
<path d="M115.003 456.58C124.144 450.697 130.733 441.584 133.455 431.057C133.724 430.014 135.328 430.486 135.059 431.528C132.206 442.477 125.33 451.947 115.805 458.048C114.897 458.629 114.1 457.158 115.003 456.58Z" fill="white"/>
<path d="M121.236 365.056C123.163 365.895 125.268 366.241 127.362 366.064C129.456 365.888 131.474 365.194 133.233 364.045C134.134 363.453 134.93 364.924 134.035 365.512C132.085 366.773 129.856 367.537 127.543 367.737C125.23 367.937 122.903 367.568 120.765 366.661C120.557 366.593 120.382 366.447 120.277 366.254C120.171 366.062 120.143 365.836 120.199 365.623C120.262 365.411 120.406 365.233 120.601 365.126C120.795 365.02 121.023 364.995 121.236 365.056Z" fill="white"/>
<path d="M389.373 130.844C418.631 130.844 442.349 107.117 442.349 77.8484C442.349 48.5797 418.631 24.8527 389.373 24.8527C360.115 24.8527 336.396 48.5797 336.396 77.8484C336.396 107.117 360.115 130.844 389.373 130.844Z" fill="#E54304"/>
<path d="M551.575 75.0829C546.802 70.0382 541.762 65.2527 536.478 60.7466C526.157 51.9916 514.732 44.5471 501.996 39.8575C497.201 38.0861 492.247 36.7814 487.201 35.9613C486.595 35.8633 485.998 35.7652 485.392 35.685C485.348 35.6805 485.303 35.6805 485.258 35.685C485.165 35.6586 485.07 35.6407 484.973 35.6315C483.735 35.471 482.496 35.3462 481.248 35.257C474.528 34.8102 467.78 35.4178 461.249 37.058C457.459 38.0145 453.761 39.3033 450.198 40.9095C446.628 42.6579 443.166 44.6199 439.832 46.7849C438.042 47.8728 436.198 48.8696 434.307 49.7716C428.786 52.3884 422.942 54.2592 416.928 55.3349C412.867 56.0637 408.754 56.4692 404.629 56.5474C401.046 56.6188 397.668 56.7435 394.273 58.0363C390.649 59.3984 387.394 61.5897 384.768 64.4351C382.142 67.2804 380.217 70.7009 379.149 74.4231C379.064 74.7537 379.088 75.1025 379.216 75.4186C379.345 75.7346 379.571 76.0013 379.862 76.1795C380.78 76.8392 381.671 77.5881 382.642 78.1766C383.499 78.568 384.414 78.8178 385.352 78.9165C386.885 79.2375 388.42 79.5496 389.959 79.8527C395.619 80.976 401.302 81.9716 407.009 82.8394C418.488 84.578 430.032 85.8024 441.642 86.5126C441.713 86.523 441.784 86.529 441.856 86.5305C454.972 87.3224 468.119 87.4503 481.248 86.9138C483.235 86.8336 485.214 86.7355 487.201 86.6196C495.481 86.156 503.74 85.4249 511.978 84.4264C519.598 83.4992 527.188 82.3491 534.748 80.976C540.149 79.9954 545.529 78.9017 550.889 77.6951C551.149 77.6181 551.385 77.4752 551.574 77.2803C551.763 77.0854 551.898 76.845 551.967 76.5824C552.036 76.3198 552.037 76.0438 551.968 75.7811C551.899 75.5185 551.764 75.278 551.575 75.0829Z" fill="#FFFDE7"/>
<path d="M441.463 145.748C433.794 137.54 425.344 130.099 416.233 123.53C413.211 121.408 410.101 119.411 406.901 117.583C402.979 115.318 398.905 113.325 394.709 111.619C393.774 111.235 392.829 110.87 391.884 110.522C386.517 108.534 380.95 107.135 375.281 106.35C375.236 106.341 375.192 106.35 375.147 106.341C375.058 106.323 374.96 106.305 374.871 106.287C372.123 105.931 369.353 105.761 366.582 105.779C364.595 105.779 362.598 105.886 360.62 106.082C357.423 106.397 354.254 106.946 351.137 107.723C349.595 108.106 348.062 108.552 346.556 109.06C344.36 109.783 342.203 110.623 340.095 111.574C340.059 111.592 340.033 111.601 339.997 111.619C336.459 113.35 333.03 115.298 329.73 117.45C329.659 117.494 329.578 117.539 329.507 117.583C325.759 119.826 321.794 121.684 317.672 123.129C314.133 124.367 310.504 125.327 306.816 126C302.756 126.73 298.643 127.133 294.517 127.203C290.935 127.275 287.557 127.399 284.17 128.701C280.545 130.063 277.289 132.254 274.661 135.099C272.034 137.945 270.108 141.365 269.037 145.088C268.955 145.418 268.979 145.767 269.107 146.082C269.235 146.398 269.461 146.665 269.75 146.844C270.668 147.504 271.568 148.244 272.531 148.832C273.387 149.227 274.302 149.477 275.24 149.572C276.773 149.893 278.306 150.214 279.848 150.517C285.507 151.641 291.193 152.633 296.906 153.495C304.74 154.681 312.606 155.629 320.506 156.339C324.249 156.687 327.995 156.972 331.744 157.195C341.36 157.775 350.986 158.001 360.62 157.873C362.607 157.846 364.595 157.801 366.582 157.739C378.382 157.391 390.146 156.506 401.875 155.082C414.948 153.5 427.932 151.253 440.777 148.351C441.037 148.275 441.273 148.133 441.462 147.939C441.65 147.745 441.786 147.505 441.855 147.243C441.924 146.981 441.924 146.706 441.856 146.444C441.787 146.182 441.652 145.942 441.463 145.748Z" fill="#FFFDE7"/>
<path d="M309.416 3.51845L356.086 648.701L262.745 656.989V11.727C273.867 3.03569 289.833 1.67592 309.416 3.51845Z" fill="#F47100"/>
<path d="M539.791 3.51845L493.12 648.701L586.462 656.989V11.727C575.339 3.03569 559.373 1.67592 539.791 3.51845Z" fill="#F47100"/>
<path d="M588.658 12.0086C585.762 4.90448 579.603 0 572.482 0H275.73C265.828 0 257.78 9.50377 257.78 21.1967V662.456C257.694 668.388 259.911 674.123 263.965 678.453C266.087 680.682 268.773 682.293 271.737 683.116C273.037 683.475 274.381 683.656 275.73 683.652H572.482C573.832 683.656 575.175 683.475 576.475 683.116C584.461 680.968 590.432 672.528 590.432 662.456V21.1967C590.44 18.0481 589.838 14.9278 588.658 12.0086ZM584.478 662.456C584.478 670.265 579.095 676.622 572.482 676.622H275.73C270.249 676.622 265.605 672.254 264.188 666.308C263.885 665.046 263.733 663.753 263.734 662.456V21.1967C263.734 13.3874 269.117 7.04105 275.73 7.04105H572.482C573.7 7.04009 574.907 7.25753 576.047 7.68304C580.922 9.47226 584.478 14.8504 584.478 21.1967V662.456Z" fill="#F47100"/>
<path d="M587.455 194.92H260.759V200.881H587.455V194.92Z" fill="#F47100"/>
<path d="M587.455 71.8857H260.759V77.8459H587.455V71.8857Z" fill="#F47100"/>
<path d="M587.455 294.257H260.759V300.217H587.455V294.257Z" fill="#F47100"/>
<path d="M366.775 2.67468H360.817V378.693H366.775V2.67468Z" fill="#F47100"/>
<path d="M487.397 2.67468H481.439V378.693H487.397V2.67468Z" fill="#F47100"/>
<path d="M624.691 646.403H233.45C226.342 646.412 219.529 649.24 214.503 654.267C209.477 659.295 206.65 666.111 206.642 673.221C206.638 676.64 207.295 680.028 208.576 683.198C210.566 688.17 213.999 692.432 218.432 695.435C222.865 698.439 228.096 700.045 233.45 700.048H624.691C629.371 700.047 633.969 698.82 638.028 696.489C642.087 694.158 645.465 690.806 647.827 686.764C648.5 685.622 649.084 684.429 649.574 683.198C650.855 680.028 651.511 676.64 651.508 673.221C651.498 666.11 648.669 659.294 643.641 654.266C638.614 649.239 631.799 646.411 624.691 646.403Z" fill="#FDD537"/>
<path d="M587.455 364.785H262.745V384.653H587.455V364.785Z" fill="#F47100"/>
<path d="M422.121 358.825H428.079C430.976 358.825 433.754 359.977 435.802 362.026C437.851 364.075 439.002 366.854 439.002 369.752H411.198C411.198 368.317 411.48 366.896 412.029 365.571C412.578 364.245 413.383 363.04 414.397 362.026C415.411 361.011 416.615 360.206 417.941 359.657C419.266 359.108 420.686 358.825 422.121 358.825Z" fill="#CCCCCC"/>
<path d="M430.828 420.816C464.814 420.816 492.365 393.255 492.365 359.256C492.365 325.257 464.814 297.696 430.828 297.696C396.842 297.696 369.291 325.257 369.291 359.256C369.291 393.255 396.842 420.816 430.828 420.816Z" fill="#FFB8B8"/>
<path d="M362.181 300.035C362.647 292.965 367.32 285.731 382.168 281.951C382.168 281.951 407.649 249.355 442.276 266.449C442.276 266.449 459.062 263.56 471.51 280.983C471.51 280.983 483.851 273.702 489.058 286.608C489.058 286.608 503.532 312.933 498.204 339.785C492.875 366.637 490.147 369.988 490.147 369.988C490.147 369.988 496.94 314.446 457.818 318.297C418.696 322.148 387.199 308.385 378.34 338.519C370.983 363.541 371.91 376.536 371.91 376.536C371.91 376.536 347.309 351.574 355.673 331.919C359.951 321.866 361.464 310.937 362.181 300.035Z" fill="#2F2E41"/>
<path d="M263.484 695.679H603.864C601.589 669.706 600.102 570.42 600.102 563.885C600.102 535.063 576.527 503.61 576.527 503.61L568.089 498.944L497.618 476.95L479.381 453.252C477.471 450.763 475.011 448.752 472.192 447.375C469.374 445.999 466.275 445.295 463.139 445.319L405.53 445.751C400.46 445.79 395.588 447.722 391.868 451.167L356.195 484.273L303.872 509.268L303.783 509.179L303.237 509.586L295.472 515.18L290.477 518.79C290.477 518.79 277.374 534.517 266.902 581.684C265.326 588.778 264.221 680.614 263.484 695.679Z" fill="#BF2E00"/>
<path d="M677.884 684.134C677.068 684.874 676.243 685.604 675.417 686.335C672.294 689.09 669.126 691.798 665.914 694.459C661.06 698.472 656.105 702.366 651.05 706.139H194.814C185.523 699.22 176.576 691.886 167.971 684.134H677.884Z" fill="#FDD537"/>
<path d="M514.686 688.547H346.244L349.809 671.608H511.121L514.686 688.547Z" fill="#2F2E41"/>
<path d="M667.078 615.439H623.247C622.258 615.437 621.28 615.651 620.382 616.066C619.484 616.482 618.689 617.09 618.051 617.847C617.44 617.729 616.82 617.669 616.197 617.668C614.831 617.667 613.478 617.935 612.216 618.457C610.953 618.979 609.806 619.745 608.84 620.711C607.873 621.677 607.106 622.824 606.583 624.086C606.06 625.349 605.791 626.702 605.791 628.068C605.791 629.435 606.06 630.788 606.583 632.051C607.106 633.313 607.873 634.46 608.84 635.426C609.806 636.392 610.953 637.158 612.216 637.68C613.478 638.202 614.831 638.47 616.197 638.468C617.767 638.468 619.316 638.108 620.725 637.416L621.456 646.403L624.361 681.923C624.499 682.366 624.684 682.794 624.914 683.198C625.501 684.276 626.368 685.177 627.423 685.804C628.479 686.432 629.684 686.764 630.912 686.764H659.413C660.642 686.762 661.848 686.431 662.904 685.803C663.961 685.176 664.83 684.276 665.42 683.198C665.643 682.792 665.825 682.365 665.964 681.923L673.628 624.31C673.943 623.285 674.014 622.2 673.833 621.143C673.653 620.085 673.227 619.085 672.59 618.222C671.953 617.359 671.122 616.658 670.165 616.174C669.207 615.691 668.15 615.439 667.078 615.439ZM616.197 635.5C614.229 635.497 612.341 634.713 610.95 633.32C609.559 631.927 608.778 630.038 608.778 628.068C608.778 626.099 609.559 624.21 610.95 622.817C612.341 621.423 614.229 620.64 616.197 620.637C616.331 620.637 616.456 620.673 616.589 620.682C616.296 621.879 616.333 623.133 616.696 624.31L619.834 634.51C618.729 635.152 617.475 635.493 616.197 635.5Z" fill="#3F3D56"/>
<path d="M568.08 426.938H290.622C288.238 426.941 285.953 427.89 284.268 429.576C282.582 431.263 281.633 433.549 281.63 435.933V623.231C281.632 625.617 282.58 627.903 284.266 629.59C285.952 631.276 288.238 632.225 290.622 632.227H568.08C570.464 632.225 572.75 631.276 574.436 629.59C576.122 627.903 577.07 625.617 577.072 623.231V435.933C577.069 433.549 576.12 431.263 574.434 429.576C572.749 427.89 570.464 426.941 568.08 426.938Z" fill="#3F3D56"/>
<path d="M460.597 577.013H395.689C394.771 577.015 393.891 577.381 393.242 578.031C392.594 578.681 392.23 579.563 392.231 580.481V683.055H464.064V580.481C464.065 580.026 463.975 579.575 463.801 579.154C463.627 578.733 463.371 578.351 463.049 578.028C462.727 577.706 462.345 577.451 461.924 577.277C461.504 577.103 461.053 577.013 460.597 577.013ZM428.362 635.294C426.332 635.285 424.388 634.474 422.952 633.038C421.517 631.602 420.707 629.657 420.697 627.627V615.796C420.699 613.764 421.508 611.816 422.945 610.38C424.382 608.944 426.33 608.137 428.362 608.137C430.393 608.137 432.341 608.944 433.778 610.38C435.215 611.816 436.024 613.764 436.026 615.796V627.627C436.017 629.657 435.206 631.602 433.771 633.038C432.336 634.474 430.392 635.285 428.362 635.294Z" fill="#2F2E41"/>
<path d="M392.009 679.774V689.67C392.01 690.183 392.214 690.675 392.576 691.037C392.939 691.4 393.43 691.604 393.943 691.605H462.353C462.866 691.602 463.356 691.398 463.718 691.035C464.08 690.673 464.285 690.183 464.287 689.67V679.774H392.009Z" fill="#3F3D56"/>
<path d="M562.18 621.273C564.599 621.273 566.56 619.312 566.56 616.892C566.56 614.472 564.599 612.51 562.18 612.51C559.761 612.51 557.8 614.472 557.8 616.892C557.8 619.312 559.761 621.273 562.18 621.273Z" fill="#2F2E41"/>
<path d="M325.648 610.536C325.446 610.536 325.247 610.576 325.061 610.653C324.875 610.73 324.706 610.843 324.564 610.985C324.421 611.127 324.308 611.296 324.231 611.482C324.154 611.669 324.114 611.868 324.115 612.069V619.96C324.116 620.366 324.278 620.755 324.565 621.041C324.852 621.328 325.242 621.489 325.648 621.489C326.054 621.489 326.443 621.328 326.73 621.041C327.018 620.755 327.18 620.366 327.181 619.96V612.069C327.181 611.868 327.141 611.669 327.064 611.482C326.987 611.296 326.874 611.127 326.732 610.985C326.59 610.843 326.42 610.73 326.234 610.653C326.048 610.575 325.849 610.536 325.648 610.536Z" fill="#2F2E41"/>
<path d="M333.972 610.536C333.771 610.536 333.571 610.576 333.385 610.653C333.199 610.73 333.03 610.843 332.888 610.985C332.745 611.127 332.632 611.296 332.555 611.482C332.478 611.669 332.439 611.868 332.439 612.069V619.96C332.439 620.366 332.6 620.756 332.888 621.044C333.175 621.332 333.565 621.493 333.972 621.493C334.379 621.493 334.769 621.332 335.056 621.044C335.344 620.756 335.505 620.366 335.505 619.96V612.069C335.505 611.868 335.465 611.669 335.388 611.482C335.311 611.296 335.198 611.127 335.056 610.985C334.914 610.843 334.745 610.73 334.559 610.653C334.373 610.576 334.173 610.536 333.972 610.536Z" fill="#2F2E41"/>
<path d="M342.296 610.536C342.095 610.536 341.895 610.576 341.709 610.653C341.523 610.73 341.354 610.843 341.212 610.985C341.069 611.127 340.956 611.296 340.879 611.482C340.802 611.669 340.763 611.868 340.763 612.069V619.96C340.764 620.366 340.926 620.755 341.213 621.041C341.501 621.328 341.89 621.489 342.296 621.489C342.702 621.489 343.091 621.328 343.379 621.041C343.666 620.755 343.828 620.366 343.829 619.96V612.069C343.829 611.868 343.789 611.669 343.712 611.482C343.635 611.296 343.522 611.127 343.38 610.985C343.238 610.843 343.069 610.73 342.883 610.653C342.697 610.575 342.497 610.536 342.296 610.536Z" fill="#2F2E41"/>
<path d="M350.62 610.536C350.419 610.536 350.219 610.576 350.033 610.653C349.847 610.73 349.678 610.843 349.536 610.985C349.394 611.127 349.281 611.296 349.204 611.482C349.127 611.669 349.087 611.868 349.087 612.069V619.96C349.088 620.366 349.25 620.755 349.537 621.041C349.825 621.328 350.214 621.489 350.62 621.489C351.026 621.489 351.415 621.328 351.703 621.041C351.99 620.755 352.152 620.366 352.153 619.96V612.069C352.153 611.868 352.114 611.669 352.037 611.482C351.96 611.296 351.847 611.127 351.704 610.985C351.562 610.843 351.393 610.73 351.207 610.653C351.021 610.576 350.821 610.536 350.62 610.536Z" fill="#2F2E41"/>
<path d="M357.261 684.089C370.059 684.089 380.433 673.711 380.433 660.909C380.433 648.106 370.059 637.728 357.261 637.728C344.464 637.728 334.089 648.106 334.089 660.909C334.089 673.711 344.464 684.089 357.261 684.089Z" fill="#FFB8B8"/>
<path d="M519.142 688.547C531.94 688.547 542.314 678.169 542.314 665.366C542.314 652.564 531.94 642.186 519.142 642.186C506.345 642.186 495.97 652.564 495.97 665.366C495.97 678.169 506.345 688.547 519.142 688.547Z" fill="#FFB8B8"/>
<path d="M758.319 385.571C756.029 381.783 753.316 377.738 749.067 376.501C744.146 375.068 739.091 377.914 734.803 380.722C721.98 389.121 709.631 398.223 697.812 407.986L697.825 408.133C707.026 407.498 714.662 431.972 723.863 431.338C730.511 430.879 738.952 405.248 744.826 402.103C747.056 400.909 749.229 399.314 751.755 399.203C754.893 399.065 757.63 401.258 759.78 403.549C772.501 417.1 776.183 437.823 790.454 449.728C781.455 427.526 770.71 406.073 758.319 385.571Z" fill="#FFC77D"/>
<path d="M782.804 418.485C789.515 430.611 796.633 442.495 804.158 454.139V454.148C804.113 454.558 804.051 454.968 803.988 455.378C803.079 453.987 802.179 452.59 801.288 451.188C794.532 440.587 788.112 429.784 782.028 418.78C779.141 413.546 776.324 408.271 773.579 402.955C771.458 398.836 769.382 394.693 767.35 390.526C766.77 389.332 766.209 388.137 765.648 386.933C764.329 384.116 763.027 381.281 761.637 378.499C760.051 375.325 758.117 372.009 755.202 369.878C753.877 368.867 752.291 368.255 750.63 368.112C748.291 368.127 746 368.784 744.008 370.011C728.932 377.939 714.86 387.646 702.094 398.925C689.312 410.159 677.886 422.848 668.049 436.736C667.746 437.164 667.033 436.753 667.336 436.317C668.539 434.623 669.751 432.955 670.999 431.297C686.463 410.726 705.423 393.035 727.013 379.034C730.64 376.68 734.339 374.437 738.108 372.303C740.007 371.224 741.914 370.163 743.857 369.164C745.717 368.074 747.803 367.427 749.953 367.274C757.35 367.158 761.182 375.539 763.812 381.174C764.631 382.948 765.466 384.719 766.316 386.487C769.515 393.174 772.84 399.807 776.289 406.387C778.41 410.444 780.582 414.476 782.804 418.485Z" fill="#FFC77D"/>
<path d="M701.367 394.786C700.937 394.306 700.51 393.827 700.078 393.348C696.667 389.575 693.008 385.846 688.325 383.683C686.092 382.619 683.654 382.054 681.181 382.026C678.629 382.096 676.113 382.645 673.764 383.645C672.647 384.091 671.555 384.597 670.479 385.137C669.25 385.756 668.043 386.415 666.842 387.081C664.586 388.329 662.36 389.633 660.163 390.991C655.792 393.693 651.558 396.602 647.461 399.717C645.337 401.332 643.257 403.001 641.22 404.722C639.326 406.321 637.471 407.963 635.653 409.648C635.265 410.006 634.684 409.426 635.073 409.067C635.552 408.621 636.036 408.177 636.521 407.739C637.889 406.502 639.28 405.288 640.692 404.098C643.268 401.924 645.91 399.834 648.619 397.828C652.831 394.706 657.188 391.797 661.691 389.099C663.94 387.752 666.221 386.461 668.533 385.227C669.231 384.855 669.937 384.491 670.652 384.146C672.273 383.328 673.957 382.642 675.688 382.095C678.14 381.301 680.734 381.046 683.294 381.347C685.766 381.707 688.147 382.531 690.312 383.776C694.91 386.347 698.476 390.323 701.947 394.202C702.297 394.597 701.72 395.18 701.367 394.786Z" fill="#FFC77D"/>
<path d="M667.718 412.939C666.55 412.997 665.394 412.666 664.434 411.998C661.889 410.069 661.956 405.437 664.637 397.836C665.367 395.777 666.511 393.889 667.999 392.29C669.487 390.69 671.287 389.412 673.288 388.536C675.162 387.697 677.19 387.258 679.243 387.246C681.296 387.234 683.33 387.649 685.214 388.465C685.543 388.607 685.867 388.761 686.187 388.925C688.368 390.147 690.412 391.598 692.285 393.254C693.878 394.636 695.576 395.891 697.365 397.007L697.962 397.357L697.396 397.755C682.959 407.923 673.171 412.939 667.718 412.939Z" fill="#FFC77D"/>
<path d="M723.234 352.43C718.487 352.429 713.887 350.781 710.219 347.765C706.552 344.75 704.044 340.555 703.124 335.896C699.154 336.7 695.512 338.662 692.656 341.535C689.8 344.408 687.859 348.062 687.078 352.038C686.297 356.013 686.71 360.131 688.266 363.871C689.821 367.612 692.45 370.808 695.819 373.055C699.189 375.303 703.148 376.502 707.198 376.501C711.248 376.499 715.207 375.298 718.575 373.048C721.943 370.798 724.569 367.601 726.123 363.859C727.676 360.118 728.087 356 727.303 352.025C725.963 352.295 724.6 352.43 723.234 352.43Z" fill="#FFC77D"/>
<path opacity="0.74" d="M174.524 385.418C191.418 385.418 205.113 371.717 205.113 354.817C205.113 337.917 191.418 324.217 174.524 324.217C157.63 324.217 143.935 337.917 143.935 354.817C143.935 371.717 157.63 385.418 174.524 385.418Z" fill="#FFC77D"/>
<path opacity="0.74" d="M205.113 385.418C222.007 385.418 235.703 371.717 235.703 354.817C235.703 337.917 222.007 324.217 205.113 324.217C188.219 324.217 174.524 337.917 174.524 354.817C174.524 371.717 188.219 385.418 205.113 385.418Z" fill="#E54304"/>
<path opacity="0.74" d="M190.077 361.029C206.971 361.029 220.666 347.329 220.666 330.429C220.666 313.529 206.971 299.828 190.077 299.828C173.183 299.828 159.488 313.529 159.488 330.429C159.488 347.329 173.183 361.029 190.077 361.029Z" fill="#F37E1C"/>
<path d="M270.065 321.66L191.493 346.354L192.027 348.055L270.599 323.361L270.065 321.66Z" fill="#3F3D56"/>
<path d="M270.565 325.792C272.534 325.792 274.13 324.195 274.13 322.225C274.13 320.256 272.534 318.659 270.565 318.659C268.596 318.659 267 320.256 267 322.225C267 324.195 268.596 325.792 270.565 325.792Z" fill="#3F3D56"/>
<path d="M780.647 482.695C785.87 486.378 790.888 490.131 796.627 492.966C796.52 493.403 796.404 493.849 796.297 494.286C795.593 493.956 794.907 493.608 794.221 493.252C788.401 490.202 783.392 486.057 777.929 482.455C775.221 480.582 772.262 479.1 769.142 478.05C765.888 477.072 762.489 476.674 759.097 476.874C744.954 477.569 732.833 486.012 719.687 490.265C713.253 492.351 706.408 493.465 699.697 492.155C692.986 490.844 687.024 487.278 681.097 484.051C675.25 480.859 668.878 477.649 662.051 477.649C656.49 477.658 650.644 479.887 647.667 484.808C647.574 484.955 647.428 485.061 647.26 485.102C647.091 485.143 646.913 485.116 646.763 485.028C646.614 484.94 646.504 484.797 646.458 484.629C646.412 484.462 646.434 484.283 646.517 484.131C647.183 483.009 648.002 481.986 648.95 481.091C652.836 477.408 658.549 475.955 663.798 476.383C670.589 476.936 676.783 480.146 682.657 483.373C688.886 486.797 695.268 490.479 702.469 491.228C709.581 491.977 716.621 490.113 723.216 487.608C735.988 482.749 748.59 474.654 762.796 475.554C769.498 475.982 775.238 478.888 780.647 482.695Z" fill="#FFC77D"/>
<path d="M221.632 224.848V226.658C221.033 226.54 220.424 226.48 219.814 226.48H210.492V246.504C210.49 249.469 209.312 252.312 207.216 254.408C205.121 256.504 202.279 257.683 199.316 257.684H185.537V260.769C185.537 262.006 185.782 263.23 186.259 264.371H184.352C183.953 263.212 183.751 261.995 183.755 260.769V257.684H176.179V255.901H183.755V235.877C183.756 232.912 184.934 230.07 187.03 227.973C189.125 225.877 191.967 224.699 194.931 224.697H208.709V221.576H210.492V224.697H219.814C220.423 224.697 221.031 224.748 221.632 224.848Z" fill="#E54304"/>
<path d="M199.316 210.432H174.432C171.469 210.434 168.627 211.612 166.532 213.708C164.436 215.805 163.258 218.647 163.256 221.612V246.504C163.258 249.469 164.436 252.312 166.532 254.408C168.627 256.504 171.469 257.683 174.432 257.684H199.316C202.279 257.683 205.121 256.504 207.216 254.408C209.312 252.312 210.49 249.469 210.492 246.504V221.576C210.481 218.618 209.299 215.784 207.204 213.695C205.11 211.607 202.273 210.433 199.316 210.432ZM208.709 246.504C208.706 248.996 207.715 251.384 205.954 253.145C204.193 254.907 201.806 255.898 199.316 255.901H174.432C171.942 255.898 169.555 254.907 167.794 253.145C166.033 251.384 165.042 248.996 165.039 246.504V221.612C165.042 219.121 166.033 216.733 167.794 214.971C169.555 213.209 171.942 212.218 174.432 212.215H199.316C201.8 212.218 204.182 213.204 205.942 214.958C207.702 216.712 208.697 219.091 208.709 221.576V246.504Z" fill="#F37E1C"/>
<path d="M183.755 255.901V257.684H185.537V255.901H183.755ZM183.755 255.901V257.684H185.537V255.901H183.755ZM221.632 224.848C221.031 224.748 220.423 224.697 219.814 224.697H194.931C191.967 224.698 189.126 225.877 187.03 227.973C184.934 230.07 183.756 232.912 183.755 235.877V260.769C183.751 261.995 183.953 263.212 184.352 264.371C185.104 266.581 186.529 268.499 188.426 269.858C190.323 271.217 192.597 271.948 194.931 271.949H219.814C222.777 271.948 225.619 270.769 227.715 268.673C229.81 266.576 230.988 263.734 230.99 260.769V235.877C230.989 233.228 230.048 230.664 228.334 228.645C226.62 226.625 224.245 225.279 221.632 224.848ZM229.207 260.769C229.204 263.26 228.213 265.649 226.452 267.41C224.691 269.172 222.304 270.163 219.814 270.166H194.931C192.44 270.163 190.053 269.171 188.292 267.41C186.531 265.648 185.541 263.26 185.537 260.769V235.877C185.54 233.386 186.531 230.997 188.292 229.236C190.053 227.474 192.44 226.483 194.931 226.48H219.814C222.305 226.481 224.694 227.471 226.455 229.233C228.216 230.995 229.206 233.385 229.207 235.877V260.769ZM183.755 255.901V257.684H185.537V255.901H183.755Z" fill="#F37E1C"/>
<path d="M162.471 488.096H56.7713C56.0356 488.096 55.3299 488.388 54.8088 488.908C54.2877 489.427 53.9935 490.132 53.9907 490.868V497.136C57.478 510.497 61.6999 523.656 66.6373 536.552H162.471C162.835 536.552 163.196 536.481 163.532 536.341C163.869 536.202 164.174 535.998 164.432 535.741C164.689 535.483 164.894 535.177 165.033 534.841C165.172 534.504 165.243 534.143 165.243 533.779V490.868C165.242 490.133 164.95 489.428 164.43 488.909C163.911 488.389 163.206 488.096 162.471 488.096Z" fill="#E54304"/>
<path d="M152.109 550.108H71.9878C72.9414 552.346 73.9129 554.566 74.92 556.777H152.109C156.459 556.84 156.414 550.046 152.109 550.108Z" fill="#FFC77D"/>
<path d="M152.109 565.39H78.9395C80.0089 567.628 81.108 569.851 82.237 572.059H152.109C156.459 572.121 156.414 565.336 152.109 565.39Z" fill="#FFC77D"/>
<path d="M152.109 580.68H86.7378C87.932 582.918 89.1619 585.138 90.4096 587.349H152.109C156.459 587.411 156.414 580.617 152.109 580.68Z" fill="#FFC77D"/>
<path d="M704.056 170.289H703.548C705.129 170.291 706.688 170.66 708.102 171.367H705.791C703.301 171.37 700.913 172.36 699.152 174.122C697.391 175.884 696.401 178.272 696.398 180.763V205.656C696.401 208.148 697.391 210.536 699.152 212.298C700.913 214.059 703.301 215.05 705.791 215.053H707.264C706.08 215.518 704.82 215.757 703.548 215.759H704.056C706.783 215.756 709.397 214.671 711.325 212.742C713.253 210.813 714.338 208.198 714.341 205.471V180.578C714.338 177.85 713.253 175.235 711.325 173.306C709.397 171.378 706.783 170.293 704.056 170.289Z" fill="#F37E1C"/>
<path opacity="0.21" d="M704.056 170.289H703.548C705.129 170.291 706.688 170.66 708.102 171.367H705.791C703.301 171.37 700.913 172.36 699.152 174.122C697.391 175.884 696.401 178.272 696.398 180.763V205.656C696.401 208.148 697.391 210.536 699.152 212.298C700.913 214.059 703.301 215.05 705.791 215.053H707.264C706.08 215.518 704.82 215.757 703.548 215.759H704.056C706.783 215.756 709.397 214.671 711.325 212.742C713.253 210.813 714.338 208.198 714.341 205.471V180.578C714.338 177.85 713.253 175.235 711.325 173.306C709.397 171.378 706.783 170.293 704.056 170.289Z" fill="black"/>
<path d="M638.105 170.289H637.597C639.178 170.291 640.737 170.66 642.151 171.367H639.84C637.349 171.37 634.962 172.36 633.201 174.122C631.44 175.884 630.449 178.272 630.447 180.763V205.656C630.449 208.148 631.44 210.536 633.201 212.298C634.962 214.059 637.349 215.05 639.84 215.053H641.313C640.129 215.518 638.869 215.757 637.597 215.759H638.105C640.832 215.756 643.446 214.671 645.374 212.742C647.302 210.813 648.386 208.198 648.389 205.471V180.578C648.386 177.85 647.302 175.235 645.374 173.306C643.446 171.378 640.832 170.293 638.105 170.289Z" fill="#BF2E00"/>
<path opacity="0.21" d="M638.105 170.289H637.597C639.178 170.291 640.737 170.66 642.151 171.367H639.84C637.349 171.37 634.962 172.36 633.201 174.122C631.44 175.884 630.449 178.272 630.447 180.763V205.656C630.449 208.148 631.44 210.536 633.201 212.298C634.962 214.059 637.349 215.05 639.84 215.053H641.313C640.129 215.518 638.869 215.757 637.597 215.759H638.105C640.832 215.756 643.446 214.671 645.374 212.742C647.302 210.813 648.386 208.198 648.389 205.471V180.578C648.386 177.85 647.302 175.235 645.374 173.306C643.446 171.378 640.832 170.293 638.105 170.289Z" fill="#BF2E00"/>
<path d="M639.939 215.131C637.449 215.128 635.061 214.137 633.3 212.375C631.539 210.614 630.549 208.225 630.546 205.734V180.841C630.549 178.35 631.539 175.961 633.3 174.2C635.061 172.438 637.449 171.447 639.939 171.444H642.25C640.836 170.737 639.277 170.368 637.697 170.367H612.813C610.086 170.37 607.472 171.455 605.544 173.384C603.616 175.312 602.531 177.927 602.528 180.655V205.548C602.531 208.276 603.616 210.891 605.544 212.82C607.472 214.748 610.086 215.833 612.813 215.836H637.697C638.968 215.835 640.229 215.595 641.413 215.131L639.939 215.131Z" fill="#E54304"/>
<path d="M705.89 215.131C703.4 215.128 701.012 214.137 699.251 212.375C697.49 210.614 696.5 208.225 696.497 205.734V180.841C696.5 178.35 697.49 175.961 699.251 174.2C701.012 172.438 703.4 171.447 705.89 171.444H708.201C706.787 170.737 705.229 170.368 703.648 170.367H678.764C676.037 170.37 673.423 171.455 671.495 173.384C669.567 175.312 668.483 177.927 668.479 180.655V205.548C668.483 208.276 669.567 210.891 671.495 212.82C673.423 214.748 676.037 215.833 678.764 215.836H703.648C704.92 215.835 706.18 215.595 707.364 215.131L705.89 215.131Z" fill="#FABE30"/>
<path d="M731.722 177.035C740.855 189.603 749.209 202.718 756.739 216.308H741.161C738.434 216.304 735.82 215.218 733.893 213.29C731.965 211.361 730.88 208.747 730.876 206.019V181.127C730.875 179.719 731.163 178.326 731.722 177.035Z" fill="#F37E1C"/>
<path d="M704.037 228.896L695.321 215.835L688.949 206.286C688.577 205.728 688.055 205.288 687.443 205.015C686.83 204.742 686.154 204.648 685.49 204.744C684.827 204.84 684.205 205.122 683.695 205.558C683.186 205.993 682.81 206.564 682.612 207.204L679.929 215.835L674.528 233.176C674.315 233.866 674.317 234.606 674.535 235.295C674.753 235.985 675.176 236.591 675.747 237.034C676.319 237.477 677.011 237.735 677.733 237.773C678.455 237.812 679.171 237.629 679.787 237.25L681.703 236.064C682.089 235.826 682.529 235.691 682.981 235.671C683.434 235.651 683.884 235.746 684.289 235.949C684.694 236.152 685.041 236.455 685.297 236.829C685.552 237.203 685.708 237.637 685.749 238.088L687.505 257.256C687.587 258.137 687.994 258.955 688.647 259.552C689.299 260.148 690.15 260.481 691.034 260.484C691.141 260.484 691.248 260.475 691.364 260.466L694.055 260.225C694.52 260.183 694.971 260.05 695.384 259.833C695.796 259.616 696.162 259.32 696.46 258.961C696.758 258.602 696.983 258.189 697.121 257.743C697.258 257.298 697.307 256.829 697.264 256.365L695.455 236.572C695.412 236.107 695.492 235.639 695.687 235.215C695.883 234.791 696.186 234.426 696.568 234.157C696.949 233.888 697.394 233.723 697.859 233.681C698.324 233.639 698.792 233.72 699.216 233.916L699.608 234.094C700.31 234.417 701.098 234.502 701.853 234.336C702.608 234.17 703.288 233.761 703.79 233.173C704.291 232.584 704.587 231.848 704.632 231.076C704.676 230.304 704.467 229.538 704.037 228.896Z" fill="#FFF49D"/>
<defs>
<linearGradient id="paint0_linear_307_488" x1="426.927" y1="3.00061" x2="426.927" y2="566.111" gradientUnits="userSpaceOnUse">
<stop offset="0.0818032" stop-color="#FFF49D"/>
<stop offset="0.766491" stop-color="#FDD637"/>
</linearGradient>
<linearGradient id="paint1_linear_307_488" x1="423.023" y1="46.928" x2="423.023" y2="782" gradientUnits="userSpaceOnUse">
<stop stop-color="#FDEA57"/>
<stop offset="1" stop-color="#EE6002"/>
</linearGradient>
</defs>
</svg>
